<svg width="27" height="27" viewBox="0 0 27 27" fill="none" xmlns="http://www.w3.org/2000/svg">
<g clip-path="url(#clip0_6423_2890)">
<path d="M16.2444 16.0925C16.1803 16.2142 16.1307 16.4301 16.0498 16.4428C15.3272 16.5565 14.5991 16.6343 13.7609 16.7363C14.0069 16.5371 14.1799 16.3971 14.3333 16.2729C13.6821 15.9511 13.0398 15.6337 12.3101 15.2731C11.1714 16.6384 10.0198 18.0284 8.85524 19.4072C8.64047 19.6615 8.40698 19.9849 8.1215 20.0704C7.80483 20.1653 7.28237 20.152 7.09811 19.9524C6.88065 19.7168 6.8366 19.216 6.89354 18.8587C6.93598 18.5924 7.24174 18.355 7.45884 18.1332C8.69051 16.8749 9.93079 15.6253 11.185 14.3556C8.60051 11.5651 5.49826 10.0574 1.63477 10.3599C2.14211 9.21642 5.21679 7.91418 7.99421 8.22757C10.343 8.49259 12.4491 9.34932 14.2812 10.7735C14.7531 10.3319 15.1941 9.91932 15.7134 9.43344C15.1717 8.98953 14.5831 8.47963 13.9645 8.00987C13.542 7.68898 13.3915 7.31243 13.744 6.90482C14.47 6.0654 15.2216 5.24546 16.0066 4.46238C16.4345 4.03551 16.958 4.24462 17.1817 4.8263C17.2791 5.07957 17.4298 5.33944 17.6244 5.52264C18.643 6.48145 19.6784 7.42239 20.721 8.35475C20.9103 8.52407 21.1488 8.65105 21.3839 8.75184C21.9652 9.00101 22.1464 9.48368 21.7416 9.9511C21.0308 10.7719 20.2867 11.565 19.527 12.3402C19.182 12.6922 18.7942 12.633 18.4582 12.2658C17.917 11.6741 17.3717 11.0863 16.8856 10.5593C16.4309 11.1022 16.0284 11.5828 15.6277 12.0613C15.9303 12.5476 16.2471 13.0568 16.5975 13.6199C16.7129 13.4557 16.8144 13.3113 16.9593 13.14C17.0025 13.1132 16.9979 13.1061 16.9979 13.1061C16.9659 13.3884 16.9225 13.67 16.9038 13.9531C16.833 15.0262 16.8595 16.0546 17.5029 17.017C17.9471 17.6812 18.2089 18.4695 18.5522 19.2023C18.4953 19.2301 18.4384 19.2579 18.3815 19.2856C17.7332 18.2033 17.0848 17.1209 16.3809 15.9593C15.3002 14.3402 14.0273 13.0424 12.5551 11.8905C12.5662 11.8 12.5715 11.7639 12.624 11.7488C14.138 12.6656 15.3279 13.8678 16.4187 15.2351C16.4635 15.2122 16.4908 15.1532 16.5261 15.0368C16.2332 13.0057 14.9635 11.7436 13.4242 10.5872C13.402 10.8109 13.3886 10.9467 13.3615 11.22C12.1381 9.54177 10.499 8.97952 8.67443 8.72033C8.72698 8.94566 8.76745 9.11917 8.81795 9.33571C7.02729 8.22657 3.98566 8.53098 2.65515 9.94415C5.36528 9.9988 7.78577 10.8124 9.8225 12.6039C10.8368 13.4961 11.8313 14.3687 13.292 14.4327C12.9917 14.5173 12.6913 14.6018 12.3227 14.7056C13.5151 15.6909 14.8029 16.113 16.2444 16.0925ZM17.297 6.43245C17.297 6.43245 17.3046 6.43815 17.3141 6.32737C17.3043 6.12244 17.3421 5.76046 17.2764 5.74022C17.0151 5.65968 16.7214 5.68575 16.4228 5.67152C16.437 5.63894 16.4794 5.56102 16.5056 5.47792C16.5829 5.23309 16.6538 4.98619 16.7273 4.7401C16.4537 4.85011 16.117 4.89292 15.9185 5.08274C15.3269 5.64825 14.7777 6.26097 14.2392 6.87932C14.099 7.04022 14.0581 7.28908 13.9717 7.49754C14.1919 7.56724 14.4122 7.63695 14.4317 7.64313C15.0902 8.34036 15.6489 8.93198 16.2342 9.55181C15.6798 10.0333 15.1473 10.4958 14.7308 10.8575C14.958 11.2296 15.1189 11.4932 15.3506 11.8728C15.8705 11.1735 16.2942 10.6037 16.7067 10.0487C17.5271 10.3588 17.7386 11.6059 18.7567 11.3361C18.7993 11.6076 18.8421 11.8802 18.8849 12.1528C19.134 12.0094 19.4272 11.9109 19.624 11.7142C20.2206 11.118 20.7941 10.496 21.3431 9.85492C21.4663 9.71102 21.4534 9.44847 21.5031 9.24054C21.2967 9.25706 21.084 9.24841 20.8857 9.29797C20.7236 9.33847 20.5787 9.44845 20.2765 9.60532C20.4842 9.25095 20.5954 9.06137 20.7812 8.74452C20.3673 8.59792 20.0235 8.47614 19.8112 8.40096C19.7055 8.16014 19.6625 7.91667 19.5212 7.76876C19.1556 7.38597 18.7154 7.0736 18.364 6.67952C18.0411 6.31731 17.7091 6.24418 17.297 6.43245ZM10.3209 17.0662C10.897 16.3973 11.4731 15.7284 12.0833 15.02C11.8568 14.8448 11.6809 14.7087 11.5106 14.577C10.6113 15.4801 9.76372 16.3335 8.91359 17.1842C8.42021 17.678 7.91728 18.1622 7.42909 18.661C7.13926 18.9572 6.93233 19.3241 7.28151 19.676C7.66682 20.0643 8.02524 19.808 8.33053 19.4917C8.43047 19.3882 8.51521 19.2697 8.60669 19.1579C9.15578 18.4868 9.70482 17.8157 10.3209 17.0662Z" fill="#FEFEFE"/>
<path d="M19.6073 19.9708C20.7657 19.3827 21.1796 18.3382 21.211 17.1299C21.2575 15.3372 21.2253 13.5425 21.2405 11.7487C21.2424 11.5324 21.331 11.3168 21.3794 11.1008C21.4572 11.1087 21.535 11.1166 21.6128 11.1245C21.6338 11.3234 21.673 11.5223 21.6731 11.7213C21.6736 13.4424 21.6536 15.1637 21.6665 16.8847C21.6794 18.5981 20.9402 19.8897 19.4851 20.7105C18.5685 21.2275 17.5809 21.6235 16.6059 22.0265C15.0528 22.6684 13.427 23.1727 12.2785 24.6577C10.8533 22.8827 8.76397 22.4184 6.84915 21.6218C6.42798 21.4465 6.01286 21.2542 5.6045 21.0503C3.74914 20.1239 2.77686 18.6768 2.85604 16.5233C2.91924 14.8045 2.86514 13.0815 2.86703 11.3603C2.86728 11.1342 2.89081 10.9081 2.90356 10.6821C2.98403 10.6699 3.0645 10.6577 3.14497 10.6455C3.19657 10.8516 3.29154 11.0575 3.29299 11.264C3.30582 13.082 3.32971 14.9007 3.29499 16.7182C3.26298 18.3938 3.97982 19.6113 5.3987 20.4117C6.06637 20.7884 6.77651 21.0918 7.47928 21.401C8.70811 21.9415 9.94609 22.461 11.2135 22.9322C11.2468 22.8751 11.2446 22.8692 11.2004 22.9093C11.3312 23.071 11.5064 23.1925 11.6791 23.3121C11.6767 23.31 11.6731 23.3046 11.6686 23.3512C11.7185 23.419 11.7729 23.4401 11.8242 23.4588C11.8211 23.4562 11.816 23.45 11.8178 23.4943C11.8705 23.5616 11.9212 23.5847 11.9685 23.6049C11.9649 23.6021 11.9586 23.5956 11.9707 23.6461C12.2341 24.0119 12.4247 23.984 12.5482 23.5979C12.5451 23.6014 12.5378 23.6073 12.5836 23.6061C12.651 23.5532 12.6726 23.5014 12.6917 23.4529C12.6892 23.456 12.6829 23.461 12.7308 23.4626C12.7982 23.411 12.8177 23.3578 12.8355 23.3072C12.8338 23.3098 12.8288 23.3137 12.8801 23.3239C13.6643 22.9389 14.3781 22.5004 15.135 22.1588C16.1984 21.679 17.3072 21.3013 18.369 20.8183C18.8196 20.6133 19.2002 20.2519 19.6112 19.9638C19.6097 19.9661 19.6073 19.9708 19.6073 19.9708Z" fill="#FEFEFE"/>
<path d="M11.2486 22.8773C10.943 22.6455 10.6657 22.3406 10.322 22.1905C9.33221 21.7582 8.30292 21.4177 7.31365 20.9842C6.56904 20.6579 5.82399 20.3027 5.14757 19.8551C4.13889 19.1876 3.63131 18.1749 3.61095 16.9615C3.58045 15.1439 3.59307 13.3256 3.60335 11.5076C3.60424 11.3511 3.72462 11.1952 3.78949 11.0391C3.86872 11.206 4.01494 11.3721 4.01682 11.5399C4.03547 13.2123 4.05124 14.8853 4.0256 16.5574C4.00286 18.0407 4.62581 19.1446 5.90243 19.8238C6.74734 20.2734 7.64727 20.6248 8.54057 20.9731C9.86103 21.488 11.2147 21.9283 12.2575 23.0344C13.4005 21.8522 14.8852 21.4164 16.3091 20.8523C17.1335 20.5258 17.9664 20.1953 18.736 19.7597C19.9131 19.0934 20.5214 18.0493 20.5009 16.6504C20.4803 15.2448 20.4923 13.8385 20.5056 12.4327C20.5076 12.2179 20.5937 12.0039 20.671 11.6533C20.8378 11.8605 20.9148 11.9115 20.9148 11.9626C20.9144 13.7558 20.9386 15.55 20.8881 17.342C20.8584 18.3983 20.1589 19.1468 19.5589 19.933C19.607 19.9706 19.6094 19.9659 19.5778 19.9082C18.2807 20.4148 17.0101 20.9671 15.7519 21.5472C14.8842 21.9473 14.0267 22.3721 13.1819 22.8192C13.0224 22.9036 12.9442 23.1447 12.8285 23.3135C12.8285 23.3135 12.8335 23.3096 12.7788 23.2833C12.7103 23.3249 12.6965 23.3928 12.6826 23.4608C12.6826 23.4608 12.6889 23.4558 12.6384 23.4311C12.571 23.4733 12.5542 23.5402 12.5374 23.6071C12.5374 23.6071 12.5448 23.6012 12.4873 23.5843C12.2726 23.5768 12.1155 23.5861 11.9583 23.5953C11.9583 23.5953 11.9646 23.6019 11.9881 23.546C11.9463 23.4766 11.881 23.4632 11.8157 23.4498C11.8157 23.4498 11.8207 23.456 11.8504 23.3998C11.8109 23.3306 11.7419 23.3175 11.6728 23.3044C11.6728 23.3044 11.6763 23.3098 11.7216 23.2693C11.5927 23.1089 11.4185 22.9889 11.2443 22.869C11.2443 22.869 11.2465 22.8749 11.2486 22.8773Z" fill="#FEFEFE"/>
<path d="M3.29909 4.69704C3.23174 6.02591 3.43997 7.30552 3.19312 8.54667C3.10238 8.54148 3.01164 8.53628 2.9209 8.53109C2.9209 6.85793 2.9209 5.18477 2.9209 3.4668C9.14287 3.4668 15.3712 3.4668 21.6831 3.4668C21.6831 4.90748 21.6876 6.32836 21.6729 7.74902C21.672 7.84358 21.5249 7.9366 21.4458 8.03034C21.3754 7.89966 21.2461 7.76999 21.2439 7.63815C21.2276 6.66995 21.2368 5.70131 21.2379 4.73281C21.2381 4.47273 21.2379 4.21264 21.2379 3.91534C15.2323 3.91534 9.31284 3.91534 3.29908 3.91534C3.29908 4.15518 3.29908 4.38984 3.29909 4.69704Z" fill="#FEFEFE"/>
<path d="M8.79469 4.60868C7.27604 4.60865 5.82948 4.60865 4.38292 4.60865C4.38081 4.66977 4.3787 4.7309 4.37659 4.79202C4.43349 4.8102 4.49264 4.82325 4.54691 4.84744C4.82284 4.9704 5.16459 5.03666 5.34612 5.24462C5.4464 5.3595 5.35835 5.83279 5.21207 5.93397C4.94484 6.11883 4.49871 6.30923 4.26025 6.20048C3.95446 6.061 3.5903 5.62299 3.59878 5.32362C3.60857 4.97771 3.92934 4.54013 4.24001 4.33302C4.52586 4.14244 4.97732 4.16374 5.35609 4.16232C8.44951 4.15072 11.543 4.15278 14.6365 4.16161C14.8652 4.16226 15.0937 4.24789 15.3223 4.29401C15.3093 4.39891 15.2963 4.50381 15.2833 4.60871C13.1445 4.60871 11.0056 4.60871 8.79469 4.60868ZM4.95632 5.45326C4.67367 5.29748 4.39102 5.1417 3.93266 4.88908C4.05223 5.24751 4.06712 5.59365 4.22758 5.68807C4.38686 5.78181 4.69265 5.62221 4.95632 5.45326Z" fill="#FEFEFE"/>
<path d="M20.0537 4.82488C19.572 4.75158 19.0922 4.65962 18.6081 4.61139C18.2731 4.57802 17.9322 4.60498 17.5869 4.60498C17.6066 4.40124 17.5934 4.32832 17.6183 4.31093C18.1022 3.97316 20.1379 4.0869 20.4506 4.55852C20.6547 4.86638 20.7523 5.3875 20.6379 5.72298C20.5506 5.97897 20.063 6.22155 19.7404 6.24013C19.2893 6.2661 18.8885 5.96287 18.9249 5.43414C18.9636 4.87279 19.3457 4.72894 19.9372 4.93817C19.8138 5.15104 19.6062 5.30054 19.3985 5.45004C19.3799 5.51237 19.3612 5.57471 19.3425 5.63704C19.6069 5.66265 19.9534 5.80631 20.1186 5.68934C20.4649 5.44405 20.4702 5.08468 20.0537 4.82488Z" fill="#FEFEFE"/>
<path d="M17.0057 13.1171C17.0371 13.0971 17.0662 13.0734 17.0954 13.0498C17.0808 13.0808 17.0662 13.1119 17.0252 13.1246C16.9988 13.1064 17.0035 13.1135 17.0057 13.1171Z" fill="#FEFEFE"/>
<path d="M12.5551 11.8908C11.7819 11.5216 11.0145 11.0979 10.2471 10.6743C10.265 10.6331 10.2829 10.592 10.3008 10.5508C11.0386 10.9211 11.7763 11.2915 12.5454 11.695C12.5715 11.7643 12.5662 11.8004 12.5551 11.8908Z" fill="#FEFEFE"/>
<path d="M13.4804 11.2941C13.487 11.2902 13.4738 11.298 13.4804 11.2941Z" fill="#FEFEFE"/>
<path d="M16.3079 6.01467C16.2232 6.0392 16.1385 6.06373 16.0537 6.08826C16.0859 6.03882 16.118 5.98938 16.2042 5.94727C16.2748 5.97461 16.2913 5.99464 16.3079 6.01467Z" fill="#FEFEFE"/>
<path d="M17.2928 6.42969C17.2958 6.45858 17.3055 6.48982 17.3075 6.52155C17.3079 6.52764 17.2783 6.53569 17.2625 6.54284C17.254 6.51691 17.2454 6.49098 17.2707 6.45148C17.3045 6.43791 17.2969 6.4322 17.2928 6.42969Z" fill="#FEFEFE"/>
<path d="M16.2393 5.92096C16.2758 5.86176 16.3314 5.83664 16.3871 5.81152C16.3903 5.86694 16.3935 5.92236 16.3524 5.99645C16.2916 5.99509 16.275 5.97507 16.2393 5.92096Z" fill="#FEFEFE"/>
</g>
<defs>
<clipPath id="clip0_6423_2890">
<rect width="147.077" height="32" fill="white" transform="translate(-4.03809 -2)"/>
</clipPath>
</defs>
</svg>
