<svg width="26" height="33" viewBox="0 0 26 33" fill="none" xmlns="http://www.w3.org/2000/svg">
<g id="Group">
<path id="Vector" fill-rule="evenodd" clip-rule="evenodd" d="M0.699097 22.44C0.699428 21.9877 0.879339 21.554 1.19929 21.2343C1.51924 20.9146 1.95304 20.735 2.40535 20.735H10.5845C10.1602 21.7299 9.94243 22.8007 9.94441 23.8824C9.94441 23.9703 9.94441 24.0574 9.94741 24.1442H2.40503C1.95292 24.1441 1.51932 23.9646 1.19946 23.6451C0.879606 23.3255 0.699643 22.8921 0.699097 22.44ZM0.699097 26.6174C0.699461 26.1651 0.879344 25.7316 1.19922 25.4119C1.5191 25.0922 1.9528 24.9126 2.40503 24.9125H10.0078C10.1644 26.1315 10.5993 27.2982 11.279 28.3223H2.40503C1.95283 28.3222 1.51916 28.1426 1.19929 27.8229C0.879416 27.5033 0.699511 27.0698 0.699097 26.6176V26.6174ZM14.4735 32.5H2.40503C1.95287 32.5 1.51923 32.3204 1.19951 32.0007C0.87978 31.6809 0.700159 31.2473 0.700159 30.7951C0.700159 30.343 0.87978 29.9093 1.19951 29.5896C1.51923 29.2699 1.95287 29.0903 2.40503 29.0903H11.8557C12.9196 30.3464 14.3417 31.2478 15.9318 31.6739C15.7794 31.9245 15.5653 32.132 15.3101 32.2766C15.0548 32.4212 14.7668 32.4981 14.4735 32.5ZM18.0063 31.1772C19.4489 31.1771 20.8592 30.7492 22.0586 29.9476C23.2581 29.1461 24.1929 28.0068 24.745 26.674C25.297 25.3411 25.4414 23.8745 25.1599 22.4596C24.8784 21.0446 24.1837 19.745 23.1636 18.7249C22.1435 17.7048 20.8438 17.0101 19.4288 16.7286C18.0139 16.4472 16.5473 16.5916 15.2145 17.1436C13.8816 17.6957 12.7424 18.6305 11.9408 19.83C11.1393 21.0295 10.7114 22.4397 10.7113 23.8824C10.7136 25.8164 11.4829 27.6706 12.8505 29.0381C14.2181 30.4057 16.0723 31.175 18.0063 31.1772ZM19.981 21.7051C19.9803 21.7559 19.9898 21.8063 20.0087 21.8534C20.0277 21.9005 20.0559 21.9433 20.0915 21.9795C20.1272 22.0156 20.1697 22.0443 20.2166 22.0639C20.2634 22.0834 20.3137 22.0935 20.3644 22.0935C20.4152 22.0935 20.4655 22.0834 20.5123 22.0639C20.5592 22.0443 20.6017 22.0156 20.6373 21.9795C20.673 21.9433 20.7012 21.9005 20.7201 21.8534C20.7391 21.8063 20.7486 21.7559 20.7479 21.7051C20.7479 20.4149 19.7213 19.3449 18.3897 19.1694V18.1944C18.3897 18.1441 18.3798 18.0942 18.3605 18.0477C18.3413 18.0012 18.313 17.9589 18.2774 17.9233C18.2418 17.8877 18.1995 17.8595 18.153 17.8402C18.1065 17.8209 18.0566 17.811 18.0063 17.811C17.9559 17.811 17.9061 17.8209 17.8596 17.8402C17.813 17.8595 17.7708 17.8877 17.7352 17.9233C17.6995 17.9589 17.6713 18.0012 17.652 18.0477C17.6328 18.0942 17.6228 18.1441 17.6228 18.1944V19.1694C16.2913 19.3449 15.2647 20.4149 15.2647 21.7051C15.2647 22.9953 16.2913 24.0662 17.6228 24.2408V27.8191C16.717 27.656 16.0316 26.9296 16.0316 26.0606C16.0316 25.9589 15.9912 25.8613 15.9193 25.7894C15.8474 25.7175 15.7499 25.6771 15.6482 25.6771C15.5465 25.6771 15.4489 25.7175 15.377 25.7894C15.3051 25.8613 15.2647 25.9589 15.2647 26.0606C15.2647 27.3507 16.2913 28.4208 17.6228 28.5963V29.5709C17.6228 29.6726 17.6632 29.7701 17.7352 29.842C17.8071 29.9139 17.9046 29.9543 18.0063 29.9543C18.108 29.9543 18.2055 29.9139 18.2774 29.842C18.3493 29.7701 18.3897 29.6726 18.3897 29.5709V28.5963C19.7213 28.4208 20.7479 27.3507 20.7479 26.0606C20.7479 24.7704 19.7213 23.6994 18.3897 23.524V19.9466C19.2955 20.1091 19.981 20.8361 19.981 21.7051ZM16.0316 21.7051C16.0316 20.8364 16.717 20.1091 17.6228 19.9466V23.4645C16.717 23.3014 16.0316 22.575 16.0316 21.7051ZM19.981 26.0606C19.981 26.9293 19.2955 27.656 18.3897 27.8191V24.3012C19.2955 24.4637 19.981 25.1907 19.981 26.0606ZM6.74097 18.5656C6.63924 18.5653 6.54175 18.5248 6.46988 18.4528C6.398 18.3808 6.3576 18.2832 6.35754 18.1815V10.9205H4.15322C4.08058 10.9205 4.00942 10.9 3.94797 10.8612C3.88653 10.8225 3.83732 10.7671 3.80605 10.7015C3.77477 10.636 3.76271 10.5629 3.77126 10.4908C3.77981 10.4186 3.80861 10.3504 3.85435 10.2939L8.07541 5.11875C8.11134 5.07453 8.15668 5.03887 8.20813 5.01438C8.25958 4.98989 8.31584 4.97719 8.37282 4.97719C8.4298 4.97719 8.48606 4.98989 8.53751 5.01438C8.58895 5.03887 8.63429 5.07453 8.67022 5.11875L12.8913 10.2937C12.9371 10.3502 12.9659 10.4184 12.9744 10.4906C12.983 10.5627 12.9709 10.6358 12.9396 10.7014C12.9084 10.7669 12.8591 10.8223 12.7977 10.8611C12.7362 10.8998 12.6651 10.9204 12.5924 10.9203H10.3883V18.1812C10.3882 18.283 10.3478 18.3805 10.2759 18.4525C10.204 18.5245 10.1065 18.5651 10.0048 18.5653L6.74097 18.5656ZM18.3021 0.641625C18.2665 0.597454 18.2214 0.56181 18.1702 0.537305C18.1191 0.5128 18.063 0.500054 18.0063 0.5C17.9491 0.500321 17.8928 0.513169 17.8411 0.537638C17.7895 0.562108 17.7438 0.597604 17.7074 0.641625L13.4862 5.81712C13.4405 5.87365 13.4117 5.94194 13.4032 6.01411C13.3946 6.08629 13.4067 6.1594 13.438 6.22502C13.4692 6.29063 13.5184 6.34606 13.5798 6.38491C13.6413 6.42376 13.7124 6.44444 13.7851 6.44456H15.9892V13.7047C15.9892 13.7551 15.9991 13.805 16.0183 13.8516C16.0376 13.8981 16.0658 13.9405 16.1014 13.9761C16.137 14.0118 16.1793 14.0401 16.2258 14.0594C16.2724 14.0787 16.3223 14.0887 16.3727 14.0887H19.6366C19.6872 14.089 19.7374 14.0793 19.7843 14.0601C19.8311 14.041 19.8737 14.0127 19.9097 13.977C19.9456 13.9413 19.9741 13.8989 19.9935 13.8522C20.013 13.8054 20.0231 13.7553 20.0231 13.7047V6.44456H22.2273C22.2996 6.44442 22.3704 6.42367 22.4314 6.38474C22.4923 6.3458 22.5409 6.29031 22.5715 6.22475C22.6027 6.15917 22.6148 6.08609 22.6062 6.01396C22.5977 5.94182 22.5689 5.87358 22.5232 5.81712L18.3021 0.641625Z" fill="#000031"/>
</g>
</svg>
