<svg width="32" height="19" viewBox="0 0 32 19" fill="none" xmlns="http://www.w3.org/2000/svg">
<g id="Group">
<path id="Vector" fill-rule="evenodd" clip-rule="evenodd" d="M19.2 1.2829L22.2401 4.29165H19.3709C19.3255 4.29155 19.282 4.27346 19.2499 4.24134C19.2179 4.20923 19.1999 4.16571 19.1999 4.12034V1.28284L19.2 1.2829ZM9.28054 18.0563C9.28056 18.1017 9.29858 18.1452 9.33065 18.1773C9.36272 18.2094 9.40622 18.2275 9.4516 18.2276H22.5495C22.5949 18.2275 22.6384 18.2094 22.6704 18.1773C22.7025 18.1452 22.7205 18.1017 22.7205 18.0563V5.04177H19.3705C19.1264 5.04134 18.8925 4.94408 18.72 4.77133C18.5475 4.59858 18.4506 4.36445 18.4505 4.12034V0.772461H9.4516C9.40625 0.772477 9.36276 0.790497 9.33068 0.82256C9.29861 0.854624 9.28057 0.898108 9.28054 0.943461V18.0563ZM16.0005 15.93C14.9321 15.9301 13.8876 15.6133 12.9992 15.0197C12.1107 14.4262 11.4183 13.5825 11.0093 12.5954C10.6004 11.6083 10.4933 10.5221 10.7017 9.47413C10.9101 8.42618 11.4246 7.46356 12.1801 6.708C12.9355 5.95245 13.8981 5.43788 14.946 5.22938C15.994 5.02088 17.0802 5.12781 18.0673 5.53664C19.0545 5.94548 19.8982 6.63786 20.4919 7.52623C21.0855 8.4146 21.4024 9.45906 21.4025 10.5275C21.4008 11.9597 20.8312 13.3328 19.8185 14.3456C18.8058 15.3584 17.4328 15.9282 16.0005 15.93ZM16.0005 5.8754C16.9206 5.87555 17.82 6.14853 18.585 6.65982C19.35 7.17111 19.9461 7.89775 20.2981 8.74786C20.6501 9.59797 20.7422 10.5334 20.5625 11.4358C20.3829 12.3382 19.9398 13.167 19.2891 13.8176C18.6384 14.4681 17.8095 14.9111 16.907 15.0906C16.0046 15.27 15.0692 15.1778 14.2192 14.8257C13.3691 14.4735 12.6426 13.8772 12.1315 13.1121C11.6203 12.3471 11.3475 11.4476 11.3475 10.5275C11.3485 9.29384 11.839 8.11096 12.7114 7.23869C13.5839 6.36642 14.7669 5.87609 16.0005 5.8754ZM14.8299 11.9531C14.8299 12.4143 15.1631 12.8062 15.626 12.9475V10.8681C14.7474 10.7038 14.081 9.97434 14.081 9.1024C14.081 8.23046 14.7474 7.5004 15.626 7.33677V6.80365C15.626 6.70432 15.6655 6.60907 15.7357 6.53884C15.806 6.4686 15.9012 6.42915 16.0005 6.42915C16.0999 6.42915 16.1951 6.4686 16.2654 6.53884C16.3356 6.60907 16.375 6.70432 16.375 6.80365V7.33677C17.2537 7.5004 17.9172 8.2299 17.9172 9.1024C17.9178 9.15198 17.9086 9.2012 17.8901 9.24719C17.8715 9.29319 17.844 9.33504 17.8092 9.37033C17.7744 9.40562 17.7329 9.43364 17.6871 9.45276C17.6414 9.47189 17.5923 9.48174 17.5427 9.48174C17.4931 9.48174 17.444 9.47189 17.3983 9.45276C17.3525 9.43364 17.311 9.40562 17.2762 9.37033C17.2413 9.33504 17.2139 9.29319 17.1953 9.24719C17.1768 9.2012 17.1676 9.15198 17.1682 9.1024C17.1682 8.64121 16.835 8.24934 16.375 8.10809V10.1875C17.2537 10.3518 17.9172 11.0806 17.9172 11.9531C17.9172 12.8256 17.2537 13.5551 16.375 13.7188V14.2519C16.375 14.3512 16.3356 14.4465 16.2654 14.5167C16.1951 14.5869 16.0999 14.6264 16.0005 14.6264C15.9012 14.6264 15.806 14.5869 15.7357 14.5167C15.6655 14.4465 15.626 14.3512 15.626 14.2519V13.7188C14.7474 13.5551 14.081 12.8256 14.081 11.9531C14.0803 11.9035 14.0895 11.8543 14.1081 11.8083C14.1266 11.7623 14.1541 11.7204 14.1889 11.6852C14.2238 11.6499 14.2653 11.6218 14.311 11.6027C14.3568 11.5836 14.4059 11.5737 14.4554 11.5737C14.505 11.5737 14.5541 11.5836 14.5999 11.6027C14.6456 11.6218 14.6871 11.6499 14.722 11.6852C14.7568 11.7204 14.7843 11.7623 14.8028 11.8083C14.8213 11.8543 14.8306 11.9035 14.8299 11.9531V11.9531ZM17.1682 11.9531C17.1682 12.4143 16.835 12.8062 16.375 12.9475V10.9591C16.835 11.0998 17.1682 11.4917 17.1682 11.9529V11.9531ZM14.8299 9.1024C14.8299 8.64121 15.1631 8.24934 15.626 8.10809V10.0961C15.1631 9.95546 14.8299 9.56359 14.8299 9.1024ZM29.3875 3.57927H26.5625C26.5133 3.57912 26.4645 3.58871 26.4189 3.60751C26.3734 3.62631 26.332 3.65393 26.2972 3.68879C26.2624 3.72365 26.2349 3.76506 26.2161 3.81062C26.1974 3.85619 26.1879 3.90501 26.1881 3.95427V10.1925H24.3217C24.2506 10.1923 24.181 10.2124 24.1209 10.2504C24.0608 10.2884 24.0128 10.3427 23.9825 10.4069C23.9522 10.4712 23.9408 10.5428 23.9497 10.6133C23.9586 10.6838 23.9874 10.7503 24.0327 10.805L27.6831 15.2825C27.7182 15.3256 27.7625 15.3604 27.8128 15.3843C27.863 15.4081 27.9179 15.4205 27.9735 15.4205C28.0292 15.4205 28.0841 15.4081 28.1343 15.3843C28.1846 15.3604 28.2288 15.3256 28.264 15.2825L31.9144 10.805C31.9597 10.7503 31.9885 10.6838 31.9974 10.6133C32.0063 10.5428 31.9949 10.4712 31.9646 10.407C31.9343 10.3427 31.8863 10.2884 31.8262 10.2504C31.7662 10.2124 31.6965 10.1924 31.6255 10.1925H29.7619V3.95434C29.7619 3.85498 29.7225 3.75968 29.6523 3.68937C29.5821 3.61906 29.4868 3.57948 29.3875 3.57934L29.3875 3.57927ZM2.61366 15.4205H5.43866C5.53802 15.4203 5.63326 15.3807 5.70347 15.3104C5.77367 15.2401 5.8131 15.1448 5.8131 15.0455V8.80752H7.67666C7.7476 8.80738 7.81706 8.78718 7.87701 8.74926C7.93696 8.71133 7.98497 8.65723 8.01549 8.59319C8.04601 8.52916 8.0578 8.45779 8.04951 8.38734C8.04121 8.31689 8.01316 8.25022 7.9686 8.19502L4.31504 3.71727C4.28022 3.67417 4.23619 3.6394 4.18618 3.61552C4.13617 3.59164 4.08145 3.57926 4.02604 3.57927C3.97025 3.57955 3.9152 3.59205 3.86476 3.61589C3.81433 3.63973 3.76973 3.67434 3.7341 3.71727L0.0836642 8.19477C0.0391273 8.24998 0.0111013 8.31664 0.00281853 8.38709C-0.00546423 8.45753 0.00633362 8.52888 0.0368514 8.59291C0.0673692 8.65694 0.115364 8.71103 0.1753 8.74896C0.235236 8.78689 0.304673 8.80711 0.375602 8.80727H2.23916V15.0455C2.23916 15.1448 2.2786 15.2401 2.34882 15.3104C2.41904 15.3808 2.51429 15.4203 2.61366 15.4205Z" fill="white"/>
</g>
</svg>
