<svg width="26" height="32" viewBox="0 0 26 32" fill="none" xmlns="http://www.w3.org/2000/svg">
<g id="Group">
<path id="Vector" fill-rule="evenodd" clip-rule="evenodd" d="M0.699097 21.94C0.699428 21.4877 0.879339 21.054 1.19929 20.7343C1.51924 20.4146 1.95304 20.235 2.40535 20.235H10.5845C10.1602 21.2299 9.94243 22.3007 9.94441 23.3824C9.94441 23.4703 9.94441 23.5574 9.94741 23.6442H2.40503C1.95292 23.6441 1.51932 23.4646 1.19946 23.1451C0.879606 22.8255 0.699643 22.3921 0.699097 21.94ZM0.699097 26.1174C0.699461 25.6651 0.879344 25.2316 1.19922 24.9119C1.5191 24.5922 1.9528 24.4126 2.40503 24.4125H10.0078C10.1644 25.6315 10.5993 26.7982 11.279 27.8223H2.40503C1.95283 27.8222 1.51916 27.6426 1.19929 27.3229C0.879416 27.0033 0.699511 26.5698 0.699097 26.1176V26.1174ZM14.4735 32H2.40503C1.95287 32 1.51923 31.8204 1.19951 31.5007C0.87978 31.1809 0.700159 30.7473 0.700159 30.2951C0.700159 29.843 0.87978 29.4093 1.19951 29.0896C1.51923 28.7699 1.95287 28.5903 2.40503 28.5903H11.8557C12.9196 29.8464 14.3417 30.7478 15.9318 31.1739C15.7794 31.4245 15.5653 31.632 15.3101 31.7766C15.0548 31.9212 14.7668 31.9981 14.4735 32ZM18.0063 30.6772C19.4489 30.6771 20.8592 30.2492 22.0586 29.4476C23.2581 28.6461 24.1929 27.5068 24.745 26.174C25.297 24.8411 25.4414 23.3745 25.1599 21.9596C24.8784 20.5446 24.1837 19.245 23.1636 18.2249C22.1435 17.2048 20.8438 16.5101 19.4288 16.2286C18.0139 15.9472 16.5473 16.0916 15.2145 16.6436C13.8816 17.1957 12.7424 18.1305 11.9408 19.33C11.1393 20.5295 10.7114 21.9397 10.7113 23.3824C10.7136 25.3164 11.4829 27.1706 12.8505 28.5381C14.2181 29.9057 16.0723 30.675 18.0063 30.6772ZM19.981 21.2051C19.9803 21.2559 19.9898 21.3063 20.0087 21.3534C20.0277 21.4005 20.0559 21.4433 20.0915 21.4795C20.1272 21.5156 20.1697 21.5443 20.2166 21.5639C20.2634 21.5834 20.3137 21.5935 20.3644 21.5935C20.4152 21.5935 20.4655 21.5834 20.5123 21.5639C20.5592 21.5443 20.6017 21.5156 20.6373 21.4795C20.673 21.4433 20.7012 21.4005 20.7201 21.3534C20.7391 21.3063 20.7486 21.2559 20.7479 21.2051C20.7479 19.9149 19.7213 18.8449 18.3897 18.6694V17.6944C18.3897 17.6441 18.3798 17.5942 18.3605 17.5477C18.3413 17.5012 18.313 17.4589 18.2774 17.4233C18.2418 17.3877 18.1995 17.3595 18.153 17.3402C18.1065 17.3209 18.0566 17.311 18.0063 17.311C17.9559 17.311 17.9061 17.3209 17.8596 17.3402C17.813 17.3595 17.7708 17.3877 17.7352 17.4233C17.6995 17.4589 17.6713 17.5012 17.652 17.5477C17.6328 17.5942 17.6228 17.6441 17.6228 17.6944V18.6694C16.2913 18.8449 15.2647 19.9149 15.2647 21.2051C15.2647 22.4953 16.2913 23.5662 17.6228 23.7408V27.3191C16.717 27.156 16.0316 26.4296 16.0316 25.5606C16.0316 25.4589 15.9912 25.3613 15.9193 25.2894C15.8474 25.2175 15.7499 25.1771 15.6482 25.1771C15.5465 25.1771 15.4489 25.2175 15.377 25.2894C15.3051 25.3613 15.2647 25.4589 15.2647 25.5606C15.2647 26.8507 16.2913 27.9208 17.6228 28.0963V29.0709C17.6228 29.1726 17.6632 29.2701 17.7352 29.342C17.8071 29.4139 17.9046 29.4543 18.0063 29.4543C18.108 29.4543 18.2055 29.4139 18.2774 29.342C18.3493 29.2701 18.3897 29.1726 18.3897 29.0709V28.0963C19.7213 27.9208 20.7479 26.8507 20.7479 25.5606C20.7479 24.2704 19.7213 23.1994 18.3897 23.024V19.4466C19.2955 19.6091 19.981 20.3361 19.981 21.2051ZM16.0316 21.2051C16.0316 20.3364 16.717 19.6091 17.6228 19.4466V22.9645C16.717 22.8014 16.0316 22.075 16.0316 21.2051ZM19.981 25.5606C19.981 26.4293 19.2955 27.156 18.3897 27.3191V23.8012C19.2955 23.9637 19.981 24.6907 19.981 25.5606ZM6.74097 18.0656C6.63924 18.0653 6.54175 18.0248 6.46988 17.9528C6.398 17.8808 6.3576 17.7832 6.35754 17.6815V10.4205H4.15322C4.08058 10.4205 4.00942 10.4 3.94797 10.3612C3.88653 10.3225 3.83732 10.2671 3.80605 10.2015C3.77477 10.136 3.76271 10.0629 3.77126 9.99076C3.77981 9.91862 3.80861 9.85038 3.85435 9.79394L8.07541 4.61875C8.11134 4.57453 8.15668 4.53887 8.20813 4.51438C8.25958 4.48989 8.31584 4.47719 8.37282 4.47719C8.4298 4.47719 8.48606 4.48989 8.53751 4.51438C8.58895 4.53887 8.63429 4.57453 8.67022 4.61875L12.8913 9.79375C12.9371 9.85019 12.9659 9.91844 12.9744 9.99058C12.983 10.0627 12.9709 10.1358 12.9396 10.2014C12.9084 10.2669 12.8591 10.3223 12.7977 10.3611C12.7362 10.3998 12.6651 10.4204 12.5924 10.4203H10.3883V17.6812C10.3882 17.783 10.3478 17.8805 10.2759 17.9525C10.204 18.0245 10.1065 18.0651 10.0048 18.0653L6.74097 18.0656ZM18.3021 0.141625C18.2665 0.0974538 18.2214 0.0618104 18.1702 0.0373053C18.1191 0.0128002 18.063 5.3921e-05 18.0063 0C17.9491 0.000320926 17.8928 0.0131688 17.8411 0.0376384C17.7895 0.0621079 17.7438 0.0976038 17.7074 0.141625L13.4862 5.31712C13.4405 5.37365 13.4117 5.44194 13.4032 5.51411C13.3946 5.58629 13.4067 5.6594 13.438 5.72502C13.4692 5.79063 13.5184 5.84606 13.5798 5.88491C13.6413 5.92376 13.7124 5.94444 13.7851 5.94456H15.9892V13.2047C15.9892 13.2551 15.9991 13.305 16.0183 13.3516C16.0376 13.3981 16.0658 13.4405 16.1014 13.4761C16.137 13.5118 16.1793 13.5401 16.2258 13.5594C16.2724 13.5787 16.3223 13.5887 16.3727 13.5887H19.6366C19.6872 13.589 19.7374 13.5793 19.7843 13.5601C19.8311 13.541 19.8737 13.5127 19.9097 13.477C19.9456 13.4413 19.9741 13.3989 19.9935 13.3522C20.013 13.3054 20.0231 13.2553 20.0231 13.2047V5.94456H22.2273C22.2996 5.94442 22.3704 5.92367 22.4314 5.88474C22.4923 5.8458 22.5409 5.79031 22.5715 5.72475C22.6027 5.65917 22.6148 5.58609 22.6062 5.51396C22.5977 5.44182 22.5689 5.37358 22.5232 5.31712L18.3021 0.141625Z" fill="white"/>
</g>
</svg>
