<svg width="26" height="30" viewBox="0 0 26 30" fill="none" xmlns="http://www.w3.org/2000/svg">
<g id="Group">
<g id="Layer 2">
<path id="Vector" d="M24.3333 26.6665H1.66667C1.40145 26.6665 1.1471 26.5611 0.95956 26.3736C0.772023 26.1861 0.666667 25.9317 0.666667 25.6665C0.666667 25.4013 0.772023 25.1469 0.95956 24.9594C1.1471 24.7719 1.40145 24.6665 1.66667 24.6665H24.3333C24.5986 24.6665 24.8529 24.7719 25.0404 24.9594C25.228 25.1469 25.3333 25.4013 25.3333 25.6665C25.3333 25.9317 25.228 26.1861 25.0404 26.3736C24.8529 26.5611 24.5986 26.6665 24.3333 26.6665ZM25 29.3332H1C0.734784 29.3332 0.480429 29.2278 0.292893 29.0403C0.105357 28.8527 0 28.5984 0 28.3332C0 28.068 0.105357 27.8136 0.292893 27.6261C0.480429 27.4385 0.734784 27.3332 1 27.3332H25C25.2652 27.3332 25.5196 27.4385 25.7071 27.6261C25.8946 27.8136 26 28.068 26 28.3332C26 28.5984 25.8946 28.8527 25.7071 29.0403C25.5196 29.2278 25.2652 29.3332 25 29.3332Z" fill="white"/>
<path id="Vector_2" d="M8.33329 26.6666C8.06915 26.6631 7.8168 26.5567 7.63 26.3699C7.44321 26.1831 7.33675 25.9307 7.33329 25.6666V12.3333C7.33329 12.068 7.43865 11.8137 7.62619 11.6261C7.81372 11.4386 8.06808 11.3333 8.33329 11.3333C8.59851 11.3333 8.85286 11.4386 9.0404 11.6261C9.22794 11.8137 9.33329 12.068 9.33329 12.3333V25.6666C9.32984 25.9307 9.22337 26.1831 9.03658 26.3699C8.84979 26.5567 8.59744 26.6631 8.33329 26.6666ZM13 26.6666C12.7358 26.6631 12.4835 26.5567 12.2967 26.3699C12.1099 26.1831 12.0034 25.9307 12 25.6666V12.3333C12 12.068 12.1053 11.8137 12.2929 11.6261C12.4804 11.4386 12.7347 11.3333 13 11.3333C13.2652 11.3333 13.5195 11.4386 13.7071 11.6261C13.8946 11.8137 14 12.068 14 12.3333V25.6666C13.9965 25.9307 13.89 26.1831 13.7032 26.3699C13.5165 26.5567 13.2641 26.6631 13 26.6666ZM17.6666 26.6666C17.4025 26.6631 17.1501 26.5567 16.9633 26.3699C16.7765 26.1831 16.6701 25.9307 16.6666 25.6666V12.3333C16.6666 12.068 16.772 11.8137 16.9595 11.6261C17.1471 11.4386 17.4014 11.3333 17.6666 11.3333C17.9318 11.3333 18.1862 11.4386 18.3737 11.6261C18.5613 11.8137 18.6666 12.068 18.6666 12.3333V25.6666C18.6632 25.9307 18.5567 26.1831 18.3699 26.3699C18.1831 26.5567 17.9308 26.6631 17.6666 26.6666ZM22.3333 26.6666C22.0692 26.6631 21.8168 26.5567 21.63 26.3699C21.4432 26.1831 21.3367 25.9307 21.3333 25.6666V12.3333C21.3333 12.068 21.4386 11.8137 21.6262 11.6261C21.8137 11.4386 22.0681 11.3333 22.3333 11.3333C22.5985 11.3333 22.8529 11.4386 23.0404 11.6261C23.2279 11.8137 23.3333 12.068 23.3333 12.3333V25.6666C23.3298 25.9307 23.2234 26.1831 23.0366 26.3699C22.8498 26.5567 22.5974 26.6631 22.3333 26.6666ZM3.66663 26.6666C3.40248 26.6631 3.15013 26.5567 2.96334 26.3699C2.77654 26.1831 2.67008 25.9307 2.66663 25.6666V12.3333C2.66663 12.068 2.77198 11.8137 2.95952 11.6261C3.14706 11.4386 3.40141 11.3333 3.66663 11.3333C3.93184 11.3333 4.1862 11.4386 4.37373 11.6261C4.56127 11.8137 4.66663 12.068 4.66663 12.3333V25.6666C4.66317 25.9307 4.55671 26.1831 4.36991 26.3699C4.18312 26.5567 3.93077 26.6631 3.66663 26.6666Z" fill="#FEFEFE"/>
<path id="Vector_3" d="M24.6133 5.73324L13.9466 0.999911C13.6502 0.861674 13.327 0.790039 12.9999 0.790039C12.6729 0.790039 12.3497 0.861674 12.0533 0.999911L1.38662 5.73324C0.984795 5.9256 0.64603 6.22837 0.40992 6.60614C0.17381 6.98392 0.0501111 7.4211 0.0532821 7.86658V10.9999C0.0564952 11.6086 0.296094 12.1922 0.721501 12.6276C1.14691 13.0629 1.72483 13.316 2.33328 13.3332H23.6666C24.2844 13.3297 24.8758 13.0828 25.3127 12.646C25.7495 12.2091 25.9964 11.6177 25.9999 10.9999V7.86658C25.9984 7.4153 25.8668 6.97404 25.6208 6.59566C25.3749 6.21729 25.0251 5.91786 24.6133 5.73324ZM12.9999 9.33324C12.6703 9.33324 12.3481 9.2355 12.074 9.05236C11.7999 8.86922 11.5863 8.60893 11.4601 8.30438C11.334 7.99984 11.301 7.66473 11.3653 7.34143C11.4296 7.01812 11.5883 6.72115 11.8214 6.48807C12.0545 6.25498 12.3515 6.09624 12.6748 6.03193C12.9981 5.96763 13.3332 6.00063 13.6378 6.12678C13.9423 6.25292 14.2026 6.46654 14.3857 6.74063C14.5689 7.01471 14.6666 7.33694 14.6666 7.66658C14.6666 8.1086 14.491 8.53253 14.1785 8.84509C13.8659 9.15765 13.442 9.33324 12.9999 9.33324Z" fill="#FEFEFE"/>
</g>
</g>
</svg>
