<svg width="26" height="29" viewBox="0 0 26 29" fill="none" xmlns="http://www.w3.org/2000/svg">
<g id="Group">
<g id="Layer 2">
<path id="Vector" d="M24.3333 26.1665H1.66667C1.40145 26.1665 1.1471 26.0611 0.95956 25.8736C0.772023 25.6861 0.666667 25.4317 0.666667 25.1665C0.666667 24.9013 0.772023 24.6469 0.95956 24.4594C1.1471 24.2719 1.40145 24.1665 1.66667 24.1665H24.3333C24.5986 24.1665 24.8529 24.2719 25.0404 24.4594C25.228 24.6469 25.3333 24.9013 25.3333 25.1665C25.3333 25.4317 25.228 25.6861 25.0404 25.8736C24.8529 26.0611 24.5986 26.1665 24.3333 26.1665ZM25 28.8332H1C0.734784 28.8332 0.480429 28.7278 0.292893 28.5403C0.105357 28.3527 0 28.0984 0 27.8332C0 27.568 0.105357 27.3136 0.292893 27.1261C0.480429 26.9385 0.734784 26.8332 1 26.8332H25C25.2652 26.8332 25.5196 26.9385 25.7071 27.1261C25.8946 27.3136 26 27.568 26 27.8332C26 28.0984 25.8946 28.3527 25.7071 28.5403C25.5196 28.7278 25.2652 28.8332 25 28.8332Z" fill="#000031"/>
<path id="Vector_2" d="M8.33329 26.1666C8.06915 26.1631 7.8168 26.0567 7.63 25.8699C7.44321 25.6831 7.33675 25.4307 7.33329 25.1666V11.8333C7.33329 11.568 7.43865 11.3137 7.62619 11.1261C7.81372 10.9386 8.06808 10.8333 8.33329 10.8333C8.59851 10.8333 8.85286 10.9386 9.0404 11.1261C9.22794 11.3137 9.33329 11.568 9.33329 11.8333V25.1666C9.32984 25.4307 9.22337 25.6831 9.03658 25.8699C8.84979 26.0567 8.59744 26.1631 8.33329 26.1666ZM13 26.1666C12.7358 26.1631 12.4835 26.0567 12.2967 25.8699C12.1099 25.6831 12.0034 25.4307 12 25.1666V11.8333C12 11.568 12.1053 11.3137 12.2929 11.1261C12.4804 10.9386 12.7347 10.8333 13 10.8333C13.2652 10.8333 13.5195 10.9386 13.7071 11.1261C13.8946 11.3137 14 11.568 14 11.8333V25.1666C13.9965 25.4307 13.89 25.6831 13.7032 25.8699C13.5165 26.0567 13.2641 26.1631 13 26.1666ZM17.6666 26.1666C17.4025 26.1631 17.1501 26.0567 16.9633 25.8699C16.7765 25.6831 16.6701 25.4307 16.6666 25.1666V11.8333C16.6666 11.568 16.772 11.3137 16.9595 11.1261C17.1471 10.9386 17.4014 10.8333 17.6666 10.8333C17.9318 10.8333 18.1862 10.9386 18.3737 11.1261C18.5613 11.3137 18.6666 11.568 18.6666 11.8333V25.1666C18.6632 25.4307 18.5567 25.6831 18.3699 25.8699C18.1831 26.0567 17.9308 26.1631 17.6666 26.1666ZM22.3333 26.1666C22.0692 26.1631 21.8168 26.0567 21.63 25.8699C21.4432 25.6831 21.3367 25.4307 21.3333 25.1666V11.8333C21.3333 11.568 21.4386 11.3137 21.6262 11.1261C21.8137 10.9386 22.0681 10.8333 22.3333 10.8333C22.5985 10.8333 22.8529 10.9386 23.0404 11.1261C23.2279 11.3137 23.3333 11.568 23.3333 11.8333V25.1666C23.3298 25.4307 23.2234 25.6831 23.0366 25.8699C22.8498 26.0567 22.5974 26.1631 22.3333 26.1666ZM3.66663 26.1666C3.40248 26.1631 3.15013 26.0567 2.96334 25.8699C2.77654 25.6831 2.67008 25.4307 2.66663 25.1666V11.8333C2.66663 11.568 2.77198 11.3137 2.95952 11.1261C3.14706 10.9386 3.40141 10.8333 3.66663 10.8333C3.93184 10.8333 4.1862 10.9386 4.37373 11.1261C4.56127 11.3137 4.66663 11.568 4.66663 11.8333V25.1666C4.66317 25.4307 4.55671 25.6831 4.36991 25.8699C4.18312 26.0567 3.93077 26.1631 3.66663 26.1666Z" fill="#121212"/>
<path id="Vector_3" d="M24.6133 5.23324L13.9466 0.499911C13.6502 0.361674 13.327 0.290039 12.9999 0.290039C12.6729 0.290039 12.3497 0.361674 12.0533 0.499911L1.38662 5.23324C0.984795 5.4256 0.64603 5.72837 0.40992 6.10614C0.17381 6.48392 0.0501111 6.9211 0.0532821 7.36658V10.4999C0.0564952 11.1086 0.296094 11.6922 0.721501 12.1276C1.14691 12.5629 1.72483 12.816 2.33328 12.8332H23.6666C24.2844 12.8297 24.8758 12.5828 25.3127 12.146C25.7495 11.7091 25.9964 11.1177 25.9999 10.4999V7.36658C25.9984 6.9153 25.8668 6.47404 25.6208 6.09566C25.3749 5.71729 25.0251 5.41786 24.6133 5.23324ZM12.9999 8.83324C12.6703 8.83324 12.3481 8.7355 12.074 8.55236C11.7999 8.36922 11.5863 8.10893 11.4601 7.80438C11.334 7.49984 11.301 7.16473 11.3653 6.84143C11.4296 6.51812 11.5883 6.22115 11.8214 5.98807C12.0545 5.75498 12.3515 5.59624 12.6748 5.53193C12.9981 5.46763 13.3332 5.50063 13.6378 5.62678C13.9423 5.75292 14.2026 5.96654 14.3857 6.24063C14.5689 6.51471 14.6666 6.83694 14.6666 7.16658C14.6666 7.6086 14.491 8.03253 14.1785 8.34509C13.8659 8.65765 13.442 8.83324 12.9999 8.83324Z" fill="#121212"/>
</g>
</g>
</svg>
