<svg width="28" height="33" viewBox="0 0 28 33" fill="none" xmlns="http://www.w3.org/2000/svg">
<g id="Group">
<path id="Vector" d="M0.533456 27.6554C1.06496 27.3646 1.66596 27.2063 2.27571 27.2063H3.42396V0.622803C1.77214 0.99224 0.533456 2.47093 0.533456 4.23493V27.6554ZM10.378 14.9773V17.1722H22.2379V7.54499C20.0823 11.961 15.7883 14.6952 10.378 14.9773ZM2.27571 29.1144C1.27721 29.0905 0.298143 30.1153 0.580581 31.2021C0.766144 31.9714 1.47396 32.5001 2.26421 32.5001H26.1216C26.7436 32.5001 27.2319 31.9624 27.1676 31.3429C27.0991 30.6816 27.164 29.9335 27.4688 29.1144H2.27571Z" fill="#000031"/>
<path id="Vector_2" d="M17.1066 10.8369C18.9821 9.49255 20.3614 7.59192 21.142 5.29492H10.3781V13.0986C12.9314 12.9471 15.2422 12.1733 17.1066 10.8369Z" fill="#000031"/>
<path id="Vector_3" d="M5.29626 27.1732H27.4688V1.55313C27.4688 0.9715 26.998 0.5 26.4172 0.5H5.29626V27.1732ZM20.6678 23.9669H12.2097C11.6927 23.9669 11.2736 23.5472 11.2736 23.0294C11.2736 22.5117 11.6927 22.0919 12.2097 22.0919H20.6678C21.1848 22.0919 21.6039 22.5117 21.6039 23.0294C21.6039 23.5472 21.1848 23.9669 20.6678 23.9669ZM8.50576 4.32437C8.50576 3.80662 8.92489 3.38687 9.44189 3.38687H23.174C23.691 3.38687 24.1101 3.80662 24.1101 4.32437V18.0765C24.1101 18.5942 23.691 19.014 23.174 19.014H9.44189C8.92489 19.014 8.50576 18.5942 8.50576 18.0765V4.32437Z" fill="#000031"/>
</g>
</svg>
