<svg width="32" height="31" viewBox="0 0 32 31" fill="none" xmlns="http://www.w3.org/2000/svg">
<g id="Group">
<path id="Vector" d="M28.0937 10.0312C28.0874 10.0375 22.5437 11.1937 22.5374 11.2L18.6937 12C19.4687 15.6937 21.8124 26.8 22.5562 30.4L31.9562 28.4312L28.0937 10.0312ZM30.6687 26.4562C29.9437 26.6062 29.4812 27.3187 29.6312 28.05C29.6499 28.1437 29.6312 28.2437 29.5812 28.3312C29.5249 28.4125 29.4437 28.4687 29.3499 28.4875L24.9687 29.4062C24.7749 29.45 24.5687 29.3187 24.5312 29.1187C24.3812 28.4 23.6687 27.9312 22.9374 28.0812C22.7437 28.1187 22.5499 27.9937 22.4999 27.8L19.6874 14.4187C19.6499 14.2187 19.7749 14.025 19.9749 13.9812C20.6937 13.8312 21.1624 13.1125 21.0124 12.3875C20.9749 12.1875 21.0999 11.9937 21.2937 11.95L25.6749 11.0312C25.8749 10.9937 26.0749 11.1188 26.1124 11.3125C26.2624 12.0437 26.9812 12.5062 27.7062 12.3562C27.8999 12.3125 28.0999 12.45 28.1437 12.6438L30.9499 26.025C30.9937 26.2187 30.8687 26.4125 30.6687 26.4562ZM15.3812 16.1C15.225 16.2188 15.1812 16.4625 15.3062 16.6125C15.525 16.9 15.6125 17.2562 15.5625 17.6125C15.5125 17.9687 15.325 18.2812 15.0375 18.4937C14.8812 18.6125 14.8375 18.8563 14.9625 19.0063L21.1437 27.2687L21.3749 28.375L13.0437 17.25L18.2312 13.3687L18.3374 13.8875L15.3812 16.1ZM18.5062 14.6812L20.7874 25.5688L15.75 18.8375C16.3375 18.2312 16.4812 17.2313 16.0874 16.4813L18.5062 14.6812ZM12.2312 17.3937C12.1062 17.2312 12.1437 17.0063 12.3062 16.8813L18.0562 12.575L17.8937 11.8C17.8562 11.6 17.9812 11.4063 18.1749 11.3625L18.3687 11.325L22.0812 10.5437V3.86875C22.0874 3.3875 21.6812 2.98125 21.2062 2.9875H3.3812C2.9062 2.975 2.4937 3.39375 2.49995 3.86875V29.5875C2.49995 30.075 2.8937 30.4688 3.3812 30.4688H21.2124C21.4124 30.4688 21.6124 30.3937 21.7749 30.2687L21.7437 30.1L12.2312 17.3937ZM13.2125 21.5438C13.6937 21.55 13.7 22.275 13.2125 22.2812H4.02495C3.5437 22.275 3.53745 21.5563 4.02495 21.5438H13.2125ZM4.0312 18.7938H8.62495C9.1062 18.8 9.11245 19.5187 8.62495 19.5312H4.0312C3.5437 19.5187 3.5437 18.8 4.0312 18.7938ZM3.66245 8.46875C3.66245 8.1625 3.8937 7.90625 4.19995 7.875L4.9187 7.8C4.9437 7.725 4.97495 7.65 5.01245 7.58125L4.56245 7.025C4.3687 6.78125 4.38745 6.4375 4.59995 6.225L5.4687 5.35625C5.6812 5.1375 6.0312 5.11875 6.2687 5.31875L6.8187 5.76875L7.0437 5.675L7.1187 4.9625C7.14995 4.65625 7.4062 4.425 7.71245 4.425H8.93745C9.2437 4.425 9.49995 4.65625 9.5312 4.95625L9.6062 5.675C9.6812 5.70625 9.7562 5.73125 9.8312 5.76875L10.3875 5.31875C10.625 5.125 10.9687 5.14375 11.1875 5.3625L12.05 6.225C12.2687 6.4375 12.2875 6.79375 12.0875 7.025L11.6375 7.58125C11.6687 7.65 11.7 7.725 11.7312 7.8L12.4437 7.875C12.75 7.90625 12.9812 8.1625 12.9812 8.46875V9.69375C12.9812 10 12.7437 10.2625 12.4375 10.2875L11.7312 10.3625C11.7 10.4375 11.675 10.5125 11.6375 10.5875L12.0875 11.1438C12.2812 11.375 12.2687 11.725 12.05 11.9438L11.1937 12.8125C10.975 13.0312 10.625 13.05 10.3937 12.85L9.8312 12.4C9.76245 12.4312 9.68745 12.4625 9.61245 12.4937L9.53745 13.2063C9.5062 13.5125 9.2437 13.75 8.9437 13.75H7.7187C7.4062 13.75 7.1562 13.5187 7.12495 13.2125L7.04995 12.4937C6.97495 12.4687 6.89995 12.4375 6.8312 12.4L6.27495 12.85C6.03745 13.05 5.6812 13.0312 5.46245 12.8062L4.59995 11.9438C4.3812 11.725 4.3687 11.3813 4.5562 11.1438L5.01245 10.5813C4.97495 10.5063 4.9437 10.425 4.9187 10.3562L4.2062 10.2812C3.9062 10.2562 3.66245 10 3.66245 9.6875V8.46875ZM4.0312 16.0375H8.62495C8.82495 16.0375 8.9937 16.2062 8.9937 16.4062C8.9937 16.6063 8.82495 16.775 8.62495 16.775H4.0312C3.5437 16.7687 3.5437 16.05 4.0312 16.0375ZM15.2562 27.7812H4.0312C3.54995 27.775 3.5437 27.05 4.0312 27.0438H15.2625C15.7375 27.0563 15.7437 27.775 15.2562 27.7812ZM15.2562 25.0312H4.0312C3.54995 25.025 3.5437 24.3063 4.0312 24.2938H15.2625C15.7375 24.3 15.7437 25.025 15.2562 25.0312ZM3.3812 2.25C2.51245 2.23125 1.74995 3 1.76245 3.86875V28.0125H0.924951C0.437451 28.0125 0.0437012 27.6188 0.0437012 27.1313V1.4125C0.0437012 0.925 0.437451 0.53125 0.924951 0.53125H18.7499C19.2374 0.53125 19.6312 0.925 19.6312 1.4125V2.25H3.3812ZM25.5062 11.8188L21.7874 12.6C21.8124 13.4625 21.2874 14.2625 20.4874 14.5938L23.1562 27.3125C24.0187 27.2875 24.8187 27.8062 25.1437 28.6125L28.8687 27.8375C28.8437 26.975 29.3687 26.175 30.1687 25.8438L27.4999 13.1187C26.6437 13.1437 25.8312 12.6188 25.5062 11.8188ZM27.5249 21.65C26.3249 23.5875 23.1874 23.025 22.7499 20.7563C22.4499 19.3375 23.3624 17.9437 24.7812 17.6437C27.0249 17.1375 28.8187 19.7437 27.5249 21.65ZM26.9062 21.25C26.0374 22.65 23.7812 22.225 23.4749 20.6063C23.2187 19.45 24.1499 18.3125 25.3312 18.325C26.7812 18.2813 27.7437 20.0625 26.9062 21.25ZM5.6812 10.2875C5.7812 10.4625 5.88745 10.6937 5.72495 10.8687L5.19995 11.5125L5.8937 12.2L6.53745 11.675C6.84995 11.4313 7.1687 11.8125 7.4937 11.8625C7.6312 11.9063 7.73745 12.0313 7.74995 12.175L7.83745 13.0063H8.8187L8.9062 12.175C8.9187 12.025 9.0187 11.9063 9.16245 11.8625C9.48745 11.8063 9.79995 11.4375 10.1187 11.6687L10.7625 12.1938L11.4562 11.5L10.9312 10.8562C10.7687 10.675 10.8812 10.45 10.9812 10.2688C11.1062 10.0313 11.1125 9.66875 11.4312 9.64375L12.2562 9.55625V8.575L11.4312 8.4875C11.2812 8.475 11.1625 8.36875 11.1187 8.23125C11.0687 7.90625 10.6875 7.5875 10.9312 7.275L11.4562 6.63125L10.7625 5.94375L10.1187 6.46875C9.8062 6.70625 9.48745 6.33125 9.1687 6.28125C9.02495 6.24375 8.92495 6.1125 8.9062 5.96875L8.8187 5.1375H7.83745L7.74995 5.96875C7.73745 6.11875 7.6312 6.24375 7.48745 6.28125C7.1687 6.33125 6.8437 6.70625 6.53745 6.46875L5.8937 5.94375L5.19995 6.63125L5.72495 7.275C5.9687 7.58125 5.58745 7.90625 5.5437 8.225C5.5062 8.36875 5.37495 8.46875 5.22495 8.4875L4.3937 8.575V9.55625L5.22495 9.64375C5.56245 9.6875 5.54995 10.0375 5.6812 10.2875ZM8.32495 6.91875C10.3062 6.9 11.2562 9.4375 9.7437 10.7188C8.4062 11.9438 6.1187 10.8938 6.16245 9.08125C6.16245 7.8875 7.1312 6.91875 8.32495 6.91875ZM6.89995 9.08125C6.96245 7.19375 9.6937 7.20625 9.7562 9.08125C9.7062 10.9625 6.9437 10.9625 6.89995 9.08125Z" fill="#000031"/>
</g>
</svg>
