<svg width="28" height="29" viewBox="0 0 28 29" fill="none" xmlns="http://www.w3.org/2000/svg">
<g id="Group">
<path id="Vector" d="M14 8.349L3.93099 13.012C3.83199 13.057 3.72599 13.083 3.62199 13.116V27.147C3.62199 27.4122 3.72735 27.6666 3.91489 27.8541C4.10242 28.0416 4.35678 28.147 4.62199 28.147H23.378C23.6432 28.147 23.8976 28.0416 24.0851 27.8541C24.2726 27.6666 24.378 27.4122 24.378 27.147V13.124C24.2839 13.0964 24.1915 13.0637 24.101 13.026L14 8.349ZM14.02 25.478C10.356 25.478 7.37499 22.498 7.37499 18.835C7.37499 15.172 10.355 12.192 14.02 12.192C17.681 12.192 20.661 15.172 20.661 18.835C20.661 22.498 17.681 25.478 14.02 25.478ZM15.907 17.806L15.026 17.804V16.544H15.663C15.745 16.55 15.897 16.56 15.951 16.746C16.065 17.272 16.569 17.618 17.112 17.516C17.655 17.414 18.012 16.892 17.91 16.349C17.802 15.769 17.221 14.647 15.731 14.546L15.026 14.547V14.179C15.026 13.9138 14.9206 13.6594 14.7331 13.4719C14.5456 13.2844 14.2912 13.179 14.026 13.179C13.7608 13.179 13.5064 13.2844 13.3189 13.4719C13.1313 13.6594 13.026 13.9138 13.026 14.179V14.548L12.103 14.549C10.02 14.887 10.107 16.532 10.107 16.532L10.108 17.778C10.143 18.552 10.711 19.731 12.176 19.805H13.026V21.073L12.144 21.076C12.144 21.076 12.079 19.965 10.976 20.054C10.425 20.097 10.043 20.628 10.116 21.175C10.299 22.562 11.385 23.064 12.07 23.064H13.026V23.459C13.026 23.7242 13.1313 23.9786 13.3189 24.1661C13.5064 24.3536 13.7608 24.459 14.026 24.459C14.2912 24.459 14.5456 24.3536 14.7331 24.1661C14.9206 23.9786 15.026 23.7242 15.026 23.459V23.064H16.101C16.101 23.064 17.918 22.888 17.927 20.921L17.926 19.827C17.771 17.889 15.907 17.806 15.907 17.806ZM13.026 17.8L12.154 17.799L12.135 17.779L12.103 16.561L13.026 16.545V17.8ZM15.89 21.065L15.027 21.068V19.806L15.901 19.796L15.89 21.065ZM27.833 7.776V11.255C27.8337 11.4232 27.7917 11.5887 27.7109 11.7362C27.6301 11.8837 27.5131 12.0082 27.371 12.098C26.914 12.383 26.413 12.162 26.413 12.162L14 6.413L1.58699 12.162C1.43468 12.2328 1.26699 12.264 1.09941 12.2528C0.931829 12.2416 0.769778 12.1884 0.628235 12.098C0.486692 12.0075 0.370227 11.8829 0.289608 11.7356C0.208989 11.5882 0.166818 11.423 0.166993 11.255V7.776C0.16699 7.58496 0.221707 7.39793 0.324671 7.23701C0.427634 7.0761 0.574535 6.94804 0.747993 6.868L13.581 0.945C13.7123 0.884249 13.8553 0.852783 14 0.852783C14.1447 0.852783 14.2877 0.884249 14.419 0.945L27.252 6.868C27.4255 6.94804 27.5724 7.0761 27.6753 7.23701C27.7783 7.39793 27.833 7.58496 27.833 7.776Z" fill="#000031"/>
</g>
</svg>
