<svg width="29" height="19" viewBox="0 0 29 19" fill="none" xmlns="http://www.w3.org/2000/svg">
<g id="Group">
<path id="Vector" fill-rule="evenodd" clip-rule="evenodd" d="M20 3.886V10.5C20 11.2956 19.6839 12.0587 19.1213 12.6213C18.5587 13.1839 17.7956 13.5 17 13.5H15.712C17.172 16.53 20.366 17.551 23.555 16.968C24.462 17.849 25.44 18.046 26.969 18.31C27.0698 18.3271 27.1734 18.313 27.2658 18.2695C27.3583 18.2259 27.4352 18.1551 27.4862 18.0665C27.5372 17.978 27.5598 17.8759 27.551 17.774C27.5422 17.6722 27.5024 17.5755 27.437 17.497C26.835 16.775 26.698 16.239 26.82 14.928C27.842 13.203 28.767 11.311 28.45 9.245C27.846 5.315 23.671 2.996 20 3.886ZM0.5 10.5C0.5 11.163 0.763392 11.7989 1.23223 12.2678C1.70107 12.7366 2.33696 13 3 13H8.191L9.553 15.724C9.59457 15.8069 9.65839 15.8767 9.73734 15.9254C9.81628 15.9742 9.90722 16 10 16C10.0928 16 10.1837 15.9742 10.2627 15.9254C10.3416 15.8767 10.4054 15.8069 10.447 15.724L11.809 13H17C17.663 13 18.2989 12.7366 18.7678 12.2678C19.2366 11.7989 19.5 11.163 19.5 10.5V2.5C19.5 1.83696 19.2366 1.20107 18.7678 0.732233C18.2989 0.263392 17.663 0 17 0H3C2.33696 0 1.70107 0.263392 1.23223 0.732233C0.763392 1.20107 0.5 1.83696 0.5 2.5V10.5ZM4.5 10H15.5C15.6326 10 15.7598 9.94732 15.8536 9.85355C15.9473 9.75979 16 9.63261 16 9.5C16 9.36739 15.9473 9.24021 15.8536 9.14645C15.7598 9.05268 15.6326 9 15.5 9H4.5C4.36739 9 4.24021 9.05268 4.14645 9.14645C4.05268 9.24021 4 9.36739 4 9.5C4 9.63261 4.05268 9.75979 4.14645 9.85355C4.24021 9.94732 4.36739 10 4.5 10ZM4.5 8H15.5C15.6326 8 15.7598 7.94732 15.8536 7.85355C15.9473 7.75979 16 7.63261 16 7.5C16 7.36739 15.9473 7.24021 15.8536 7.14645C15.7598 7.05268 15.6326 7 15.5 7H4.5C4.36739 7 4.24021 7.05268 4.14645 7.14645C4.05268 7.24021 4 7.36739 4 7.5C4 7.63261 4.05268 7.75979 4.14645 7.85355C4.24021 7.94732 4.36739 8 4.5 8ZM4.5 6H15.5C15.6326 6 15.7598 5.94732 15.8536 5.85355C15.9473 5.75979 16 5.63261 16 5.5C16 5.36739 15.9473 5.24021 15.8536 5.14645C15.7598 5.05268 15.6326 5 15.5 5H4.5C4.36739 5 4.24021 5.05268 4.14645 5.14645C4.05268 5.24021 4 5.36739 4 5.5C4 5.63261 4.05268 5.75979 4.14645 5.85355C4.24021 5.94732 4.36739 6 4.5 6ZM4.5 4H15.5C15.6326 4 15.7598 3.94732 15.8536 3.85355C15.9473 3.75979 16 3.63261 16 3.5C16 3.36739 15.9473 3.24021 15.8536 3.14645C15.7598 3.05268 15.6326 3 15.5 3H4.5C4.36739 3 4.24021 3.05268 4.14645 3.14645C4.05268 3.24021 4 3.36739 4 3.5C4 3.63261 4.05268 3.75979 4.14645 3.85355C4.24021 3.94732 4.36739 4 4.5 4Z" fill="#000031"/>
</g>
</svg>
