<svg width="29" height="19" viewBox="0 0 29 19" fill="none" xmlns="http://www.w3.org/2000/svg">
<path fill-rule="evenodd" clip-rule="evenodd" d="M19.5 3.886V10.5C19.5 11.2956 19.1839 12.0587 18.6213 12.6213C18.0587 13.1839 17.2956 13.5 16.5 13.5H15.212C16.672 16.53 19.866 17.551 23.055 16.968C23.962 17.849 24.94 18.046 26.469 18.31C26.5698 18.3271 26.6734 18.313 26.7658 18.2695C26.8583 18.2259 26.9352 18.1551 26.9862 18.0665C27.0372 17.978 27.0598 17.8759 27.051 17.774C27.0422 17.6722 27.0024 17.5755 26.937 17.497C26.335 16.775 26.198 16.239 26.32 14.928C27.342 13.203 28.267 11.311 27.95 9.245C27.346 5.315 23.171 2.996 19.5 3.886ZM0 10.5C0 11.163 0.263392 11.7989 0.732233 12.2678C1.20107 12.7366 1.83696 13 2.5 13H7.691L9.053 15.724C9.09457 15.8069 9.15839 15.8767 9.23734 15.9254C9.31628 15.9742 9.40723 16 9.5 16C9.59277 16 9.68372 15.9742 9.76266 15.9254C9.84161 15.8767 9.90543 15.8069 9.947 15.724L11.309 13H16.5C17.163 13 17.7989 12.7366 18.2678 12.2678C18.7366 11.7989 19 11.163 19 10.5V2.5C19 1.83696 18.7366 1.20107 18.2678 0.732233C17.7989 0.263392 17.163 0 16.5 0H2.5C1.83696 0 1.20107 0.263392 0.732233 0.732233C0.263392 1.20107 0 1.83696 0 2.5V10.5ZM4 10H15C15.1326 10 15.2598 9.94732 15.3536 9.85355C15.4473 9.75979 15.5 9.63261 15.5 9.5C15.5 9.36739 15.4473 9.24021 15.3536 9.14645C15.2598 9.05268 15.1326 9 15 9H4C3.86739 9 3.74021 9.05268 3.64645 9.14645C3.55268 9.24021 3.5 9.36739 3.5 9.5C3.5 9.63261 3.55268 9.75979 3.64645 9.85355C3.74021 9.94732 3.86739 10 4 10ZM4 8H15C15.1326 8 15.2598 7.94732 15.3536 7.85355C15.4473 7.75979 15.5 7.63261 15.5 7.5C15.5 7.36739 15.4473 7.24021 15.3536 7.14645C15.2598 7.05268 15.1326 7 15 7H4C3.86739 7 3.74021 7.05268 3.64645 7.14645C3.55268 7.24021 3.5 7.36739 3.5 7.5C3.5 7.63261 3.55268 7.75979 3.64645 7.85355C3.74021 7.94732 3.86739 8 4 8ZM4 6H15C15.1326 6 15.2598 5.94732 15.3536 5.85355C15.4473 5.75979 15.5 5.63261 15.5 5.5C15.5 5.36739 15.4473 5.24021 15.3536 5.14645C15.2598 5.05268 15.1326 5 15 5H4C3.86739 5 3.74021 5.05268 3.64645 5.14645C3.55268 5.24021 3.5 5.36739 3.5 5.5C3.5 5.63261 3.55268 5.75979 3.64645 5.85355C3.74021 5.94732 3.86739 6 4 6ZM4 4H15C15.1326 4 15.2598 3.94732 15.3536 3.85355C15.4473 3.75979 15.5 3.63261 15.5 3.5C15.5 3.36739 15.4473 3.24021 15.3536 3.14645C15.2598 3.05268 15.1326 3 15 3H4C3.86739 3 3.74021 3.05268 3.64645 3.14645C3.55268 3.24021 3.5 3.36739 3.5 3.5C3.5 3.63261 3.55268 3.75979 3.64645 3.85355C3.74021 3.94732 3.86739 4 4 4Z" fill="#FEFEFE"/>
</svg>
