<svg width="28" height="31" viewBox="0 0 28 31" fill="none" xmlns="http://www.w3.org/2000/svg">
<g id="Group">
<path id="Vector" fill-rule="evenodd" clip-rule="evenodd" d="M22.6342 4.62187C22.6463 4.59774 22.6648 4.57745 22.6877 4.56327C22.7107 4.54909 22.7371 4.54158 22.7641 4.54159C22.791 4.5416 22.8175 4.54912 22.8404 4.56331C22.8633 4.5775 22.8819 4.5978 22.8939 4.62193C23.2295 5.26634 23.7552 5.79197 24.3996 6.12757C24.4237 6.13959 24.4441 6.15812 24.4583 6.18106C24.4725 6.20399 24.48 6.23044 24.48 6.25742C24.48 6.28439 24.4725 6.31084 24.4583 6.33378C24.4441 6.35672 24.4237 6.37524 24.3996 6.38727C23.7552 6.72286 23.2295 7.24852 22.894 7.89296C22.8819 7.91709 22.8634 7.93739 22.8405 7.95157C22.8175 7.96576 22.7911 7.97327 22.7641 7.97327C22.7371 7.97327 22.7107 7.96576 22.6878 7.95157C22.6648 7.93739 22.6463 7.91709 22.6343 7.89296C22.2987 7.24853 21.773 6.72289 21.1286 6.38733C21.1044 6.37528 21.0842 6.35674 21.07 6.3338C21.0558 6.31086 21.0483 6.28442 21.0483 6.25745C21.0483 6.23048 21.0558 6.20404 21.07 6.1811C21.0842 6.15816 21.1044 6.13962 21.1286 6.12757C21.773 5.79198 22.2986 5.26632 22.6342 4.62187ZM26.0692 10.9433C26.0813 10.9192 26.0998 10.8989 26.1227 10.8846C26.1457 10.8704 26.1721 10.8629 26.1991 10.8629C26.2261 10.8629 26.2525 10.8704 26.2755 10.8846C26.2984 10.8989 26.3169 10.9192 26.3289 10.9433C26.6645 11.5877 27.1902 12.1134 27.8346 12.4489C27.8588 12.461 27.8791 12.4795 27.8932 12.5025C27.9074 12.5254 27.9149 12.5519 27.9149 12.5788C27.9149 12.6058 27.9074 12.6322 27.8932 12.6552C27.8791 12.6781 27.8588 12.6967 27.8346 12.7087C27.1902 13.0443 26.6646 13.57 26.329 14.2144C26.3169 14.2385 26.2984 14.2588 26.2754 14.2729C26.2525 14.2871 26.2261 14.2946 26.1991 14.2946C26.1721 14.2946 26.1457 14.2871 26.1228 14.2729C26.0998 14.2587 26.0813 14.2385 26.0692 14.2143C25.7336 13.5699 25.208 13.0443 24.5636 12.7087C24.5394 12.6967 24.5191 12.6781 24.505 12.6552C24.4908 12.6322 24.4833 12.6058 24.4833 12.5788C24.4833 12.5519 24.4908 12.5254 24.505 12.5025C24.5192 12.4796 24.5395 12.461 24.5636 12.449C25.208 12.1134 25.7336 11.5877 26.0692 10.9433ZM9.21415 4.62187C9.2262 4.59774 9.24474 4.57745 9.26768 4.56327C9.29062 4.54909 9.31706 4.54158 9.34402 4.54159C9.37099 4.5416 9.39743 4.54912 9.42036 4.56331C9.44329 4.5775 9.46182 4.5978 9.47386 4.62193C9.80948 5.26634 10.3351 5.79197 10.9796 6.12757C11.0037 6.13959 11.024 6.15812 11.0382 6.18106C11.0524 6.20399 11.0599 6.23044 11.0599 6.25742C11.0599 6.28439 11.0524 6.31084 11.0382 6.33378C11.024 6.35672 11.0037 6.37524 10.9796 6.38727C10.3351 6.72286 9.80948 7.24852 9.47392 7.89296C9.46186 7.91709 9.44333 7.93738 9.42039 7.95156C9.39744 7.96575 9.37101 7.97326 9.34404 7.97326C9.31707 7.97326 9.29063 7.96575 9.26769 7.95156C9.24475 7.93738 9.22621 7.91709 9.21415 7.89296C8.87858 7.24852 8.35292 6.72288 7.70846 6.38733C7.68436 6.37525 7.66409 6.35671 7.64993 6.33376C7.63576 6.31082 7.62827 6.28439 7.62827 6.25743C7.62828 6.23047 7.63579 6.20404 7.64996 6.1811C7.66413 6.15817 7.68441 6.13963 7.70852 6.12757C8.35294 5.79196 8.87857 5.26631 9.21415 4.62187ZM5.83226 10.9433C5.8443 10.9192 5.86283 10.8989 5.88577 10.8847C5.9087 10.8705 5.93514 10.863 5.96211 10.863C5.98908 10.863 6.01551 10.8705 6.03845 10.8847C6.06138 10.8989 6.07991 10.9192 6.09196 10.9433C6.42755 11.5877 6.95321 12.1134 7.59765 12.4489C7.62178 12.461 7.64207 12.4795 7.65625 12.5025C7.67044 12.5254 7.67795 12.5519 7.67795 12.5788C7.67795 12.6058 7.67044 12.6322 7.65625 12.6552C7.64207 12.6781 7.62178 12.6967 7.59765 12.7087C6.95322 13.0443 6.42758 13.57 6.09202 14.2144C6.07997 14.2385 6.06144 14.2588 6.0385 14.273C6.01556 14.2872 5.98912 14.2947 5.96215 14.2947C5.93518 14.2947 5.90875 14.2872 5.88582 14.273C5.86288 14.2588 5.84436 14.2385 5.83232 14.2143C5.4967 13.5699 4.97105 13.0443 4.32662 12.7087C4.30248 12.6967 4.28216 12.6782 4.26796 12.6552C4.25376 12.6323 4.24623 12.6058 4.24623 12.5789C4.24623 12.5519 4.25376 12.5254 4.26796 12.5025C4.28216 12.4796 4.30248 12.461 4.32662 12.449C4.97106 12.1134 5.49669 11.5878 5.83226 10.9433ZM2.23144 23.5245L2.2364 23.5332L4.91398 28.2645L4.91837 28.2723L5.5068 29.312C5.55436 29.3969 5.52524 29.5054 5.44073 29.5532L5.4401 29.5535L4.14924 30.2852C4.06435 30.3327 3.9558 30.3036 3.90812 30.2191L3.90793 30.2187L0.108146 23.5046L0.107958 23.5043C0.0601461 23.4199 0.0892598 23.3119 0.173276 23.2644L0.173715 23.2642L1.46689 22.5321C1.55153 22.4843 1.65983 22.5153 1.70815 22.5998L2.23144 23.5245ZM1.26165 23.2842C0.968382 23.3261 0.765903 23.5984 0.807817 23.8916C0.851425 24.1849 1.12374 24.3892 1.41701 24.3455C1.71028 24.3036 1.91276 24.0296 1.87084 23.7363C1.82724 23.443 1.55492 23.2405 1.26165 23.2842ZM5.54055 27.3333L3.35244 23.467L6.70579 21.5256C7.47831 21.0788 8.25428 20.7227 9.10272 20.9982L9.10297 20.9983C10.2121 21.3579 12.0202 22.124 13.8677 22.4637C14.2772 22.6105 14.5428 23.019 14.4292 23.4413L14.4292 23.4416C14.3168 23.8602 13.9574 24.0595 13.469 24.0061C12.4559 23.7966 11.5151 23.4889 10.4716 23.2085C10.204 23.1366 9.92844 23.2954 9.85654 23.563C9.78463 23.8305 9.94344 24.1062 10.211 24.178C11.2819 24.4658 12.247 24.7801 13.2876 24.9938L13.8821 25.0909C14.7364 25.2269 15.5202 25.1061 16.2682 24.6702L20.8753 21.987C22.8079 20.8611 23.6308 21.4573 23.6091 22.2775C23.6015 22.5603 23.4971 22.8456 23.2753 22.9822L14.9149 28.1296L14.9144 28.1299C14.2678 28.5289 13.5591 28.619 12.8254 28.4233L6.76151 26.7981C6.69783 26.781 6.6314 26.7767 6.56603 26.7853C6.50066 26.7939 6.43762 26.8153 6.38052 26.8483L5.54055 27.3333ZM18.9916 7.86309C20.3113 9.33911 21.3011 10.6288 21.9618 11.7891C24.4841 16.218 20.897 20.7164 16.0916 20.6356C11.2862 20.7164 7.69924 16.218 10.2198 11.7891C10.882 10.6287 11.872 9.33899 13.1909 7.86278C13.4136 7.94665 13.6497 7.98953 13.8877 7.98934H18.2956C18.54 7.98934 18.7746 7.94466 18.9916 7.86309ZM16.0522 15.9346C15.5156 15.9248 14.9814 15.6752 14.845 15.1273C14.8128 14.9981 14.7306 14.887 14.6165 14.8184C14.5024 14.7499 14.3658 14.7294 14.2366 14.7615C14.1074 14.7937 13.9964 14.8759 13.9278 14.99C13.8592 15.104 13.8387 15.2407 13.8708 15.3699C14.0816 16.2165 14.7722 16.7348 15.5703 16.8896V17.1923C15.5703 17.4694 15.7952 17.6943 16.0723 17.6943C16.3493 17.6943 16.5742 17.4694 16.5742 17.1923V16.8964C17.5106 16.7339 18.4091 16.1045 18.2769 15.0014L18.2768 15.0005C18.1402 13.8788 17.104 13.451 16.1583 13.2958H16.1581C15.9248 13.2575 15.6774 13.199 15.4635 13.0945C15.2394 12.985 15.0511 12.8193 15.037 12.5292C15.0191 12.1572 15.2731 11.9019 15.5897 11.7774C15.7358 11.7205 15.8906 11.6891 16.0473 11.6846C16.067 11.6855 16.0868 11.6853 16.1066 11.684C16.5408 11.6893 16.9813 11.8994 17.1831 12.3807C17.2902 12.6362 17.5846 12.7566 17.8401 12.6495C18.0956 12.5424 18.2161 12.2481 18.109 11.9926C17.8057 11.2693 17.2133 10.8651 16.5742 10.7318V10.427C16.5742 10.15 16.3493 9.92509 16.0723 9.92509C15.7952 9.92509 15.5703 10.15 15.5703 10.427V10.7376C15.4507 10.7638 15.3341 10.7991 15.2221 10.8432C14.509 11.1238 13.994 11.7395 14.0342 12.5775V12.5778C14.0874 13.6729 15.0732 14.1355 15.996 14.2865C16.2489 14.328 16.519 14.3875 16.7569 14.4954C17.0167 14.6133 17.2401 14.7935 17.2802 15.1213C17.3108 15.378 17.1913 15.5603 17.0148 15.6818C16.7673 15.8522 16.4314 15.927 16.1294 15.9344C16.1189 15.9346 16.1084 15.9348 16.0979 15.9349C16.0827 15.9341 16.0675 15.934 16.0522 15.9346ZM13.6667 4.01764L13.041 3.39188C12.6451 2.99765 12.6451 2.35131 13.041 1.95546C13.3755 1.62096 13.907 1.56443 14.3078 1.81974C14.4564 1.91505 14.6261 1.93124 14.7893 1.86335C14.9525 1.79546 15.0624 1.66463 15.0995 1.49171C15.1981 1.03605 15.6069 0.691895 16.0916 0.691895C16.5667 0.691895 16.9819 1.02796 17.0837 1.49171C17.1209 1.66463 17.2308 1.79546 17.3939 1.86335C17.5571 1.93124 17.7268 1.91505 17.8754 1.81974C18.2681 1.56763 18.7997 1.61293 19.1422 1.95546C19.5365 2.35131 19.5365 2.99765 19.1422 3.39188L18.5165 4.01764C18.4431 4.00947 18.3694 4.00539 18.2956 4.0054H13.8877C13.8138 4.00539 13.7401 4.00947 13.6667 4.01764ZM13.8877 6.98542C13.3448 6.98542 12.9004 6.54106 12.9004 5.99655C12.9004 5.45362 13.3448 5.00932 13.8877 5.00932H18.2956C18.8384 5.00932 19.2828 5.45362 19.2828 5.99655C19.2828 6.54106 18.8384 6.98542 18.2956 6.98542H13.8877Z" fill="white"/>
</g>
</svg>
