<svg width="28" height="30" viewBox="0 0 28 30" fill="none" xmlns="http://www.w3.org/2000/svg">
<g id="Group">
<path id="Vector" fill-rule="evenodd" clip-rule="evenodd" d="M22.6342 4.12187C22.6463 4.09774 22.6648 4.07745 22.6877 4.06327C22.7107 4.04909 22.7371 4.04158 22.7641 4.04159C22.791 4.0416 22.8175 4.04912 22.8404 4.06331C22.8633 4.0775 22.8819 4.0978 22.8939 4.12193C23.2295 4.76634 23.7552 5.29197 24.3996 5.62757C24.4237 5.63959 24.4441 5.65812 24.4583 5.68106C24.4725 5.70399 24.48 5.73044 24.48 5.75742C24.48 5.78439 24.4725 5.81084 24.4583 5.83378C24.4441 5.85672 24.4237 5.87524 24.3996 5.88727C23.7552 6.22286 23.2295 6.74852 22.894 7.39296C22.8819 7.41709 22.8634 7.43739 22.8405 7.45157C22.8175 7.46576 22.7911 7.47327 22.7641 7.47327C22.7371 7.47327 22.7107 7.46576 22.6878 7.45157C22.6648 7.43739 22.6463 7.41709 22.6343 7.39296C22.2987 6.74853 21.773 6.22289 21.1286 5.88733C21.1044 5.87528 21.0842 5.85674 21.07 5.8338C21.0558 5.81086 21.0483 5.78442 21.0483 5.75745C21.0483 5.73048 21.0558 5.70404 21.07 5.6811C21.0842 5.65816 21.1044 5.63962 21.1286 5.62757C21.773 5.29198 22.2986 4.76632 22.6342 4.12187ZM26.0692 10.4433C26.0813 10.4192 26.0998 10.3989 26.1227 10.3846C26.1457 10.3704 26.1721 10.3629 26.1991 10.3629C26.2261 10.3629 26.2525 10.3704 26.2755 10.3846C26.2984 10.3989 26.3169 10.4192 26.3289 10.4433C26.6645 11.0877 27.1902 11.6134 27.8346 11.9489C27.8588 11.961 27.8791 11.9795 27.8932 12.0025C27.9074 12.0254 27.9149 12.0519 27.9149 12.0788C27.9149 12.1058 27.9074 12.1322 27.8932 12.1552C27.8791 12.1781 27.8588 12.1967 27.8346 12.2087C27.1902 12.5443 26.6646 13.07 26.329 13.7144C26.3169 13.7385 26.2984 13.7588 26.2754 13.7729C26.2525 13.7871 26.2261 13.7946 26.1991 13.7946C26.1721 13.7946 26.1457 13.7871 26.1228 13.7729C26.0998 13.7587 26.0813 13.7385 26.0692 13.7143C25.7336 13.0699 25.208 12.5443 24.5636 12.2087C24.5394 12.1967 24.5191 12.1781 24.505 12.1552C24.4908 12.1322 24.4833 12.1058 24.4833 12.0788C24.4833 12.0519 24.4908 12.0254 24.505 12.0025C24.5192 11.9796 24.5395 11.961 24.5636 11.949C25.208 11.6134 25.7336 11.0877 26.0692 10.4433ZM9.21415 4.12187C9.2262 4.09774 9.24474 4.07745 9.26768 4.06327C9.29062 4.04909 9.31706 4.04158 9.34402 4.04159C9.37099 4.0416 9.39743 4.04912 9.42036 4.06331C9.44329 4.0775 9.46182 4.0978 9.47386 4.12193C9.80948 4.76634 10.3351 5.29197 10.9796 5.62757C11.0037 5.63959 11.024 5.65812 11.0382 5.68106C11.0524 5.70399 11.0599 5.73044 11.0599 5.75742C11.0599 5.78439 11.0524 5.81084 11.0382 5.83378C11.024 5.85672 11.0037 5.87524 10.9796 5.88727C10.3351 6.22286 9.80948 6.74852 9.47392 7.39296C9.46186 7.41709 9.44333 7.43738 9.42039 7.45156C9.39744 7.46575 9.37101 7.47326 9.34404 7.47326C9.31707 7.47326 9.29063 7.46575 9.26769 7.45156C9.24475 7.43738 9.22621 7.41709 9.21415 7.39296C8.87858 6.74852 8.35292 6.22288 7.70846 5.88733C7.68436 5.87525 7.66409 5.85671 7.64993 5.83376C7.63576 5.81082 7.62827 5.78439 7.62827 5.75743C7.62828 5.73047 7.63579 5.70404 7.64996 5.6811C7.66413 5.65817 7.68441 5.63963 7.70852 5.62757C8.35294 5.29196 8.87857 4.76631 9.21415 4.12187ZM5.83226 10.4433C5.8443 10.4192 5.86283 10.3989 5.88577 10.3847C5.9087 10.3705 5.93514 10.363 5.96211 10.363C5.98908 10.363 6.01551 10.3705 6.03845 10.3847C6.06138 10.3989 6.07991 10.4192 6.09196 10.4433C6.42755 11.0877 6.95321 11.6134 7.59765 11.9489C7.62178 11.961 7.64207 11.9795 7.65625 12.0025C7.67044 12.0254 7.67795 12.0519 7.67795 12.0788C7.67795 12.1058 7.67044 12.1322 7.65625 12.1552C7.64207 12.1781 7.62178 12.1967 7.59765 12.2087C6.95322 12.5443 6.42758 13.07 6.09202 13.7144C6.07997 13.7385 6.06144 13.7588 6.0385 13.773C6.01556 13.7872 5.98912 13.7947 5.96215 13.7947C5.93518 13.7947 5.90875 13.7872 5.88582 13.773C5.86288 13.7588 5.84436 13.7385 5.83232 13.7143C5.4967 13.0699 4.97105 12.5443 4.32662 12.2087C4.30248 12.1967 4.28216 12.1782 4.26796 12.1552C4.25376 12.1323 4.24623 12.1058 4.24623 12.0789C4.24623 12.0519 4.25376 12.0254 4.26796 12.0025C4.28216 11.9796 4.30248 11.961 4.32662 11.949C4.97106 11.6134 5.49669 11.0878 5.83226 10.4433ZM2.23144 23.0245L2.2364 23.0332L4.91398 27.7645L4.91837 27.7723L5.5068 28.812C5.55436 28.8969 5.52524 29.0054 5.44073 29.0532L5.4401 29.0535L4.14924 29.7852C4.06435 29.8327 3.9558 29.8036 3.90812 29.7191L3.90793 29.7187L0.108146 23.0046L0.107958 23.0043C0.0601461 22.9199 0.0892598 22.8119 0.173276 22.7644L0.173715 22.7642L1.46689 22.0321C1.55153 21.9843 1.65983 22.0153 1.70815 22.0998L2.23144 23.0245ZM1.26165 22.7842C0.968382 22.8261 0.765903 23.0984 0.807817 23.3916C0.851425 23.6849 1.12374 23.8892 1.41701 23.8455C1.71028 23.8036 1.91276 23.5296 1.87084 23.2363C1.82724 22.943 1.55492 22.7405 1.26165 22.7842ZM5.54055 26.8333L3.35244 22.967L6.70579 21.0256C7.47831 20.5788 8.25428 20.2227 9.10272 20.4982L9.10297 20.4983C10.2121 20.8579 12.0202 21.624 13.8677 21.9637C14.2772 22.1105 14.5428 22.519 14.4292 22.9413L14.4292 22.9416C14.3168 23.3602 13.9574 23.5595 13.469 23.5061C12.4559 23.2966 11.5151 22.9889 10.4716 22.7085C10.204 22.6366 9.92844 22.7954 9.85654 23.063C9.78463 23.3305 9.94344 23.6062 10.211 23.678C11.2819 23.9658 12.247 24.2801 13.2876 24.4938L13.8821 24.5909C14.7364 24.7269 15.5202 24.6061 16.2682 24.1702L20.8753 21.487C22.8079 20.3611 23.6308 20.9573 23.6091 21.7775C23.6015 22.0603 23.4971 22.3456 23.2753 22.4822L14.9149 27.6296L14.9144 27.6299C14.2678 28.0289 13.5591 28.119 12.8254 27.9233L6.76151 26.2981C6.69783 26.281 6.6314 26.2767 6.56603 26.2853C6.50066 26.2939 6.43762 26.3153 6.38052 26.3483L5.54055 26.8333ZM18.9916 7.36309C20.3113 8.83911 21.3011 10.1288 21.9618 11.2891C24.4841 15.718 20.897 20.2164 16.0916 20.1356C11.2862 20.2164 7.69924 15.718 10.2198 11.2891C10.882 10.1287 11.872 8.83899 13.1909 7.36278C13.4136 7.44665 13.6497 7.48953 13.8877 7.48934H18.2956C18.54 7.48934 18.7746 7.44466 18.9916 7.36309ZM16.0522 15.4346C15.5156 15.4248 14.9814 15.1752 14.845 14.6273C14.8128 14.4981 14.7306 14.387 14.6165 14.3184C14.5024 14.2499 14.3658 14.2294 14.2366 14.2615C14.1074 14.2937 13.9964 14.3759 13.9278 14.49C13.8592 14.604 13.8387 14.7407 13.8708 14.8699C14.0816 15.7165 14.7722 16.2348 15.5703 16.3896V16.6923C15.5703 16.9694 15.7952 17.1943 16.0723 17.1943C16.3493 17.1943 16.5742 16.9694 16.5742 16.6923V16.3964C17.5106 16.2339 18.4091 15.6045 18.2769 14.5014L18.2768 14.5005C18.1402 13.3788 17.104 12.951 16.1583 12.7958H16.1581C15.9248 12.7575 15.6774 12.699 15.4635 12.5945C15.2394 12.485 15.0511 12.3193 15.037 12.0292C15.0191 11.6572 15.2731 11.4019 15.5897 11.2774C15.7358 11.2205 15.8906 11.1891 16.0473 11.1846C16.067 11.1855 16.0868 11.1853 16.1066 11.184C16.5408 11.1893 16.9813 11.3994 17.1831 11.8807C17.2902 12.1362 17.5846 12.2566 17.8401 12.1495C18.0956 12.0424 18.2161 11.7481 18.109 11.4926C17.8057 10.7693 17.2133 10.3651 16.5742 10.2318V9.92705C16.5742 9.65003 16.3493 9.42509 16.0723 9.42509C15.7952 9.42509 15.5703 9.65003 15.5703 9.92705V10.2376C15.4507 10.2638 15.3341 10.2991 15.2221 10.3432C14.509 10.6238 13.994 11.2395 14.0342 12.0775V12.0778C14.0874 13.1729 15.0732 13.6355 15.996 13.7865C16.2489 13.828 16.519 13.8875 16.7569 13.9954C17.0167 14.1133 17.2401 14.2935 17.2802 14.6213C17.3108 14.878 17.1913 15.0603 17.0148 15.1818C16.7673 15.3522 16.4314 15.427 16.1294 15.4344C16.1189 15.4346 16.1084 15.4348 16.0979 15.4349C16.0827 15.4341 16.0675 15.434 16.0522 15.4346ZM13.6667 3.51764L13.041 2.89188C12.6451 2.49765 12.6451 1.85131 13.041 1.45546C13.3755 1.12096 13.907 1.06443 14.3078 1.31974C14.4564 1.41505 14.6261 1.43124 14.7893 1.36335C14.9525 1.29546 15.0624 1.16463 15.0995 0.991706C15.1981 0.536051 15.6069 0.191895 16.0916 0.191895C16.5667 0.191895 16.9819 0.527957 17.0837 0.991706C17.1209 1.16463 17.2308 1.29546 17.3939 1.36335C17.5571 1.43124 17.7268 1.41505 17.8754 1.31974C18.2681 1.06763 18.7997 1.11293 19.1422 1.45546C19.5365 1.85131 19.5365 2.49765 19.1422 2.89188L18.5165 3.51764C18.4431 3.50947 18.3694 3.50539 18.2956 3.5054H13.8877C13.8138 3.50539 13.7401 3.50947 13.6667 3.51764ZM13.8877 6.48542C13.3448 6.48542 12.9004 6.04106 12.9004 5.49655C12.9004 4.95362 13.3448 4.50932 13.8877 4.50932H18.2956C18.8384 4.50932 19.2828 4.95362 19.2828 5.49655C19.2828 6.04106 18.8384 6.48542 18.2956 6.48542H13.8877Z" fill="#000031"/>
</g>
</svg>
