<svg width="30" height="29" viewBox="0 0 30 29" fill="none" xmlns="http://www.w3.org/2000/svg">
<g id="Group">
<path id="Vector" d="M24 6.50008H26C26.2652 6.50008 26.5195 6.39472 26.7071 6.20719C26.8946 6.01965 27 5.7653 27 5.50008C27 5.07008 26.726 4.71008 26.345 4.57008L28.707 2.20708C28.8025 2.11483 28.8787 2.00449 28.9311 1.88249C28.9835 1.76048 29.0111 1.62926 29.0122 1.49648C29.0134 1.3637 28.9881 1.23202 28.9378 1.10913C28.8875 0.986231 28.8133 0.874579 28.7194 0.780686C28.6255 0.686794 28.5138 0.61254 28.3909 0.56226C28.268 0.511979 28.1363 0.486677 28.0036 0.487831C27.8708 0.488985 27.7396 0.516571 27.6176 0.56898C27.4956 0.621389 27.3852 0.697571 27.293 0.793081L24.931 3.15508C24.8617 2.96362 24.7352 2.7981 24.5686 2.68094C24.4021 2.56377 24.2036 2.50064 24 2.50008C23.7347 2.50008 23.4804 2.60544 23.2929 2.79297C23.1053 2.98051 23 3.23486 23 3.50008V5.50008C23 5.7653 23.1053 6.01965 23.2929 6.20719C23.4804 6.39472 23.7347 6.50008 24 6.50008ZM3.65496 4.57008C3.46366 4.63933 3.29825 4.76567 3.1811 4.932C3.06395 5.09833 3.00072 5.29664 2.99996 5.50008C2.99996 5.7653 3.10532 6.01965 3.29285 6.20719C3.48039 6.39472 3.73474 6.50008 3.99996 6.50008H5.99996C6.26518 6.50008 6.51953 6.39472 6.70707 6.20719C6.8946 6.01965 6.99996 5.7653 6.99996 5.50008V3.50008C6.99996 3.23486 6.8946 2.98051 6.70707 2.79297C6.51953 2.60544 6.26518 2.50008 5.99996 2.50008C5.56996 2.50008 5.20996 2.77408 5.06996 3.15508L2.70696 0.793081C2.61471 0.697571 2.50437 0.621389 2.38236 0.56898C2.26036 0.516571 2.12914 0.488985 1.99636 0.487831C1.86358 0.486677 1.7319 0.511979 1.60901 0.56226C1.48611 0.61254 1.37446 0.686794 1.28056 0.780686C1.18667 0.874579 1.11242 0.986231 1.06214 1.10913C1.01186 1.23202 0.986555 1.3637 0.987709 1.49648C0.988862 1.62926 1.01645 1.76048 1.06886 1.88249C1.12127 2.00449 1.19745 2.11483 1.29296 2.20708L3.65496 4.57008ZM26.345 24.4301C26.5363 24.361 26.7018 24.2347 26.819 24.0683C26.9362 23.9019 26.9993 23.7036 27 23.5001C27 23.2349 26.8946 22.9805 26.7071 22.793C26.5195 22.6054 26.2652 22.5001 26 22.5001H24C23.7347 22.5001 23.4804 22.6054 23.2929 22.793C23.1053 22.9805 23 23.2349 23 23.5001V25.5001C23 25.7653 23.1053 26.0197 23.2929 26.2072C23.4804 26.3947 23.7347 26.5001 24 26.5001C24.43 26.5001 24.79 26.2261 24.93 25.8451L27.293 28.2071C27.3856 28.3003 27.4958 28.3742 27.6171 28.4247C27.7384 28.4751 27.8686 28.5011 28 28.5011C28.1314 28.5011 28.2615 28.4751 28.3828 28.4247C28.5041 28.3742 28.6143 28.3003 28.707 28.2071C28.8944 28.0196 28.9997 27.7652 28.9997 27.5001C28.9997 27.2349 28.8944 26.9806 28.707 26.7931L26.345 24.4301ZM5.99996 22.5001H3.99996C3.73474 22.5001 3.48039 22.6054 3.29285 22.793C3.10532 22.9805 2.99996 23.2349 2.99996 23.5001C2.99996 23.9301 3.27396 24.2901 3.65496 24.4301L1.29296 26.7931C1.19745 26.8853 1.12127 26.9957 1.06886 27.1177C1.01645 27.2397 0.988862 27.3709 0.987709 27.5037C0.986555 27.6365 1.01186 27.7681 1.06214 27.891C1.11242 28.0139 1.18667 28.1256 1.28056 28.2195C1.37446 28.3134 1.48611 28.3876 1.60901 28.4379C1.7319 28.4882 1.86358 28.5135 1.99636 28.5123C2.12914 28.5112 2.26036 28.4836 2.38236 28.4312C2.50437 28.3788 2.61471 28.3026 2.70696 28.2071L5.06996 25.8451C5.20996 26.2251 5.56996 26.5001 5.99996 26.5001C6.26518 26.5001 6.51953 26.3947 6.70707 26.2072C6.8946 26.0197 6.99996 25.7653 6.99996 25.5001V23.5001C6.99996 23.2349 6.8946 22.9805 6.70707 22.793C6.51953 22.6054 6.26518 22.5001 5.99996 22.5001ZM23.673 20.4171L22.882 18.8341C23.202 18.2531 23.456 17.6421 23.641 17.0081L25.316 16.4481C25.5151 16.3819 25.6883 16.2547 25.8111 16.0846C25.9339 15.9144 26 15.7099 26 15.5001V13.5001C26 13.2903 25.9339 13.0858 25.8111 12.9156C25.6883 12.7454 25.5151 12.6182 25.316 12.5521L23.641 11.9921C23.4556 11.3573 23.2008 10.7449 22.881 10.1661L23.673 8.58308C23.7667 8.39533 23.7989 8.18285 23.7652 7.97574C23.7315 7.76863 23.6334 7.57739 23.485 7.42908L22.071 6.01508C21.9225 5.86689 21.7313 5.76904 21.5242 5.73531C21.3172 5.70158 21.1048 5.73368 20.917 5.82708L19.334 6.61808C18.7551 6.29864 18.1427 6.0441 17.508 5.85908L16.948 4.18408C16.8818 3.98496 16.7546 3.81172 16.5845 3.68894C16.4143 3.56617 16.2098 3.50009 16 3.50008H14C13.7901 3.50009 13.5856 3.56617 13.4155 3.68894C13.2453 3.81172 13.1181 3.98496 13.052 4.18408L12.492 5.85908C11.8572 6.04442 11.2448 6.2993 10.666 6.61908L9.08296 5.82708C8.89528 5.73308 8.68273 5.70064 8.47555 5.73439C8.26837 5.76815 8.0771 5.86636 7.92896 6.01508L6.51496 7.42908C6.36651 7.57739 6.26847 7.76863 6.23473 7.97574C6.20099 8.18285 6.23326 8.39533 6.32696 8.58308L7.11796 10.1661C6.79852 10.745 6.54398 11.3573 6.35896 11.9921L4.68396 12.5521C4.48483 12.6182 4.3116 12.7454 4.18882 12.9156C4.06605 13.0858 3.99997 13.2903 3.99996 13.5001V15.5001C3.99996 15.9301 4.27496 16.3131 4.68396 16.4481L6.35896 17.0081C6.54396 17.6421 6.79796 18.2531 7.11896 18.8341L6.32696 20.4171C6.23326 20.6048 6.20099 20.8173 6.23473 21.0244C6.26847 21.2315 6.36651 21.4228 6.51496 21.5711L7.92896 22.9851C8.23396 23.2921 8.69896 23.3661 9.08296 23.1731L10.666 22.3821C11.247 22.7021 11.858 22.9561 12.492 23.1411L13.052 24.8161C13.1181 25.0152 13.2453 25.1884 13.4155 25.3112C13.5856 25.434 13.7901 25.5001 14 25.5001H16C16.43 25.5001 16.813 25.2251 16.948 24.8161L17.508 23.1411C18.1428 22.9558 18.7551 22.7009 19.334 22.3811L20.917 23.1731C21.1047 23.2668 21.3172 23.2991 21.5243 23.2653C21.7314 23.2316 21.9227 23.1335 22.071 22.9851L23.485 21.5711C23.6334 21.4228 23.7315 21.2315 23.7652 21.0244C23.7989 20.8173 23.7667 20.6048 23.673 20.4171ZM19 19.5001H11C10.7347 19.5001 10.4804 19.3947 10.2929 19.2072C10.1053 19.0197 9.99996 18.7653 9.99996 18.5001C9.99996 17.7044 10.316 16.9414 10.8786 16.3788C11.4412 15.8162 12.2043 15.5001 13 15.5001H15C14.5242 15.4991 14.0555 15.3854 13.6322 15.1683C13.209 14.9511 12.8432 14.6368 12.5649 14.2509C12.2866 13.8651 12.1037 13.4188 12.0312 12.9486C11.9588 12.4785 11.9988 11.9978 12.148 11.5461C12.2898 11.1011 12.5361 10.6966 12.8663 10.3664C13.1965 10.0362 13.601 9.78989 14.046 9.64808C14.4977 9.49888 14.9783 9.45888 15.4485 9.53135C15.9187 9.60382 16.365 9.78671 16.7508 10.065C17.1366 10.3433 17.451 10.7091 17.6681 11.1324C17.8853 11.5556 17.999 12.0244 18 12.5001C18 14.1541 16.654 15.5001 15 15.5001H17C17.7956 15.5001 18.5587 15.8162 19.1213 16.3788C19.6839 16.9414 20 17.7044 20 18.5001C20 18.7653 19.8946 19.0197 19.7071 19.2072C19.5195 19.3947 19.2652 19.5001 19 19.5001Z" fill="#000031"/>
</g>
</svg>
