<svg width="30" height="30" viewBox="0 0 30 30" fill="none" xmlns="http://www.w3.org/2000/svg">
<g id="Group">
<path id="Vector" d="M24 7.00008H26C26.2652 7.00008 26.5195 6.89472 26.7071 6.70719C26.8946 6.51965 27 6.2653 27 6.00008C27 5.57008 26.726 5.21008 26.345 5.07008L28.707 2.70708C28.8025 2.61483 28.8787 2.50449 28.9311 2.38249C28.9835 2.26048 29.0111 2.12926 29.0122 1.99648C29.0134 1.8637 28.9881 1.73202 28.9378 1.60913C28.8875 1.48623 28.8133 1.37458 28.7194 1.28069C28.6255 1.18679 28.5138 1.11254 28.3909 1.06226C28.268 1.01198 28.1363 0.986677 28.0036 0.987831C27.8708 0.988985 27.7396 1.01657 27.6176 1.06898C27.4956 1.12139 27.3852 1.19757 27.293 1.29308L24.931 3.65508C24.8617 3.46362 24.7352 3.2981 24.5686 3.18094C24.4021 3.06377 24.2036 3.00064 24 3.00008C23.7347 3.00008 23.4804 3.10544 23.2929 3.29297C23.1053 3.48051 23 3.73486 23 4.00008V6.00008C23 6.2653 23.1053 6.51965 23.2929 6.70719C23.4804 6.89472 23.7347 7.00008 24 7.00008ZM3.65496 5.07008C3.46366 5.13933 3.29825 5.26567 3.1811 5.432C3.06395 5.59833 3.00072 5.79664 2.99996 6.00008C2.99996 6.2653 3.10532 6.51965 3.29285 6.70719C3.48039 6.89472 3.73474 7.00008 3.99996 7.00008H5.99996C6.26518 7.00008 6.51953 6.89472 6.70707 6.70719C6.8946 6.51965 6.99996 6.2653 6.99996 6.00008V4.00008C6.99996 3.73486 6.8946 3.48051 6.70707 3.29297C6.51953 3.10544 6.26518 3.00008 5.99996 3.00008C5.56996 3.00008 5.20996 3.27408 5.06996 3.65508L2.70696 1.29308C2.61471 1.19757 2.50437 1.12139 2.38236 1.06898C2.26036 1.01657 2.12914 0.988985 1.99636 0.987831C1.86358 0.986677 1.7319 1.01198 1.60901 1.06226C1.48611 1.11254 1.37446 1.18679 1.28056 1.28069C1.18667 1.37458 1.11242 1.48623 1.06214 1.60913C1.01186 1.73202 0.986555 1.8637 0.987709 1.99648C0.988862 2.12926 1.01645 2.26048 1.06886 2.38249C1.12127 2.50449 1.19745 2.61483 1.29296 2.70708L3.65496 5.07008ZM26.345 24.9301C26.5363 24.861 26.7018 24.7347 26.819 24.5683C26.9362 24.4019 26.9993 24.2036 27 24.0001C27 23.7349 26.8946 23.4805 26.7071 23.293C26.5195 23.1054 26.2652 23.0001 26 23.0001H24C23.7347 23.0001 23.4804 23.1054 23.2929 23.293C23.1053 23.4805 23 23.7349 23 24.0001V26.0001C23 26.2653 23.1053 26.5197 23.2929 26.7072C23.4804 26.8947 23.7347 27.0001 24 27.0001C24.43 27.0001 24.79 26.7261 24.93 26.3451L27.293 28.7071C27.3856 28.8003 27.4958 28.8742 27.6171 28.9247C27.7384 28.9751 27.8686 29.0011 28 29.0011C28.1314 29.0011 28.2615 28.9751 28.3828 28.9247C28.5041 28.8742 28.6143 28.8003 28.707 28.7071C28.8944 28.5196 28.9997 28.2652 28.9997 28.0001C28.9997 27.7349 28.8944 27.4806 28.707 27.2931L26.345 24.9301ZM5.99996 23.0001H3.99996C3.73474 23.0001 3.48039 23.1054 3.29285 23.293C3.10532 23.4805 2.99996 23.7349 2.99996 24.0001C2.99996 24.4301 3.27396 24.7901 3.65496 24.9301L1.29296 27.2931C1.19745 27.3853 1.12127 27.4957 1.06886 27.6177C1.01645 27.7397 0.988862 27.8709 0.987709 28.0037C0.986555 28.1365 1.01186 28.2681 1.06214 28.391C1.11242 28.5139 1.18667 28.6256 1.28056 28.7195C1.37446 28.8134 1.48611 28.8876 1.60901 28.9379C1.7319 28.9882 1.86358 29.0135 1.99636 29.0123C2.12914 29.0112 2.26036 28.9836 2.38236 28.9312C2.50437 28.8788 2.61471 28.8026 2.70696 28.7071L5.06996 26.3451C5.20996 26.7251 5.56996 27.0001 5.99996 27.0001C6.26518 27.0001 6.51953 26.8947 6.70707 26.7072C6.8946 26.5197 6.99996 26.2653 6.99996 26.0001V24.0001C6.99996 23.7349 6.8946 23.4805 6.70707 23.293C6.51953 23.1054 6.26518 23.0001 5.99996 23.0001ZM23.673 20.9171L22.882 19.3341C23.202 18.7531 23.456 18.1421 23.641 17.5081L25.316 16.9481C25.5151 16.8819 25.6883 16.7547 25.8111 16.5846C25.9339 16.4144 26 16.2099 26 16.0001V14.0001C26 13.7903 25.9339 13.5858 25.8111 13.4156C25.6883 13.2454 25.5151 13.1182 25.316 13.0521L23.641 12.4921C23.4556 11.8573 23.2008 11.2449 22.881 10.6661L23.673 9.08308C23.7667 8.89533 23.7989 8.68285 23.7652 8.47574C23.7315 8.26863 23.6334 8.07739 23.485 7.92908L22.071 6.51508C21.9225 6.36689 21.7313 6.26904 21.5242 6.23531C21.3172 6.20158 21.1048 6.23368 20.917 6.32708L19.334 7.11808C18.7551 6.79864 18.1427 6.5441 17.508 6.35908L16.948 4.68408C16.8818 4.48496 16.7546 4.31172 16.5845 4.18894C16.4143 4.06617 16.2098 4.00009 16 4.00008H14C13.7901 4.00009 13.5856 4.06617 13.4155 4.18894C13.2453 4.31172 13.1181 4.48496 13.052 4.68408L12.492 6.35908C11.8572 6.54442 11.2448 6.7993 10.666 7.11908L9.08296 6.32708C8.89528 6.23308 8.68273 6.20064 8.47555 6.23439C8.26837 6.26815 8.0771 6.36636 7.92896 6.51508L6.51496 7.92908C6.36651 8.07739 6.26847 8.26863 6.23473 8.47574C6.20099 8.68285 6.23326 8.89533 6.32696 9.08308L7.11796 10.6661C6.79852 11.245 6.54398 11.8573 6.35896 12.4921L4.68396 13.0521C4.48483 13.1182 4.3116 13.2454 4.18882 13.4156C4.06605 13.5858 3.99997 13.7903 3.99996 14.0001V16.0001C3.99996 16.4301 4.27496 16.8131 4.68396 16.9481L6.35896 17.5081C6.54396 18.1421 6.79796 18.7531 7.11896 19.3341L6.32696 20.9171C6.23326 21.1048 6.20099 21.3173 6.23473 21.5244C6.26847 21.7315 6.36651 21.9228 6.51496 22.0711L7.92896 23.4851C8.23396 23.7921 8.69896 23.8661 9.08296 23.6731L10.666 22.8821C11.247 23.2021 11.858 23.4561 12.492 23.6411L13.052 25.3161C13.1181 25.5152 13.2453 25.6884 13.4155 25.8112C13.5856 25.934 13.7901 26.0001 14 26.0001H16C16.43 26.0001 16.813 25.7251 16.948 25.3161L17.508 23.6411C18.1428 23.4558 18.7551 23.2009 19.334 22.8811L20.917 23.6731C21.1047 23.7668 21.3172 23.7991 21.5243 23.7653C21.7314 23.7316 21.9227 23.6335 22.071 23.4851L23.485 22.0711C23.6334 21.9228 23.7315 21.7315 23.7652 21.5244C23.7989 21.3173 23.7667 21.1048 23.673 20.9171ZM19 20.0001H11C10.7347 20.0001 10.4804 19.8947 10.2929 19.7072C10.1053 19.5197 9.99996 19.2653 9.99996 19.0001C9.99996 18.2044 10.316 17.4414 10.8786 16.8788C11.4412 16.3162 12.2043 16.0001 13 16.0001H15C14.5242 15.9991 14.0555 15.8854 13.6322 15.6683C13.209 15.4511 12.8432 15.1368 12.5649 14.7509C12.2866 14.3651 12.1037 13.9188 12.0312 13.4486C11.9588 12.9785 11.9988 12.4978 12.148 12.0461C12.2898 11.6011 12.5361 11.1966 12.8663 10.8664C13.1965 10.5362 13.601 10.2899 14.046 10.1481C14.4977 9.99888 14.9783 9.95888 15.4485 10.0314C15.9187 10.1038 16.365 10.2867 16.7508 10.565C17.1366 10.8433 17.451 11.2091 17.6681 11.6324C17.8853 12.0556 17.999 12.5244 18 13.0001C18 14.6541 16.654 16.0001 15 16.0001H17C17.7956 16.0001 18.5587 16.3162 19.1213 16.8788C19.6839 17.4414 20 18.2044 20 19.0001C20 19.2653 19.8946 19.5197 19.7071 19.7072C19.5195 19.8947 19.2652 20.0001 19 20.0001Z" fill="white"/>
</g>
</svg>
