<svg width="28" height="29" viewBox="0 0 28 29" fill="none" xmlns="http://www.w3.org/2000/svg">
<g id="Group">
<path id="Vector" fill-rule="evenodd" clip-rule="evenodd" d="M10.4969 0.210693C9.5781 0.210693 8.80935 0.866943 8.63498 1.73507H12.3594C12.185 0.866943 11.4162 0.210693 10.4969 0.210693ZM24.1237 23.4394L23.3412 24.0338C23.2824 24.0783 23.2331 24.134 23.1961 24.1977C23.159 24.2615 23.1351 24.332 23.1256 24.4051C23.105 24.5544 23.1431 24.7019 23.2337 24.8207L26.115 28.6151C26.205 28.7332 26.3369 28.8101 26.4862 28.8307C26.6356 28.8513 26.7831 28.8126 26.9018 28.7226L27.6844 28.1282C27.743 28.0835 27.7922 28.0278 27.8292 27.9641C27.8662 27.9004 27.8902 27.83 27.9 27.7569C27.92 27.6076 27.8819 27.4601 27.7919 27.3413L24.91 23.5469C24.82 23.4282 24.6881 23.3519 24.5387 23.3313C24.5125 23.3276 24.4862 23.3257 24.4606 23.3257C24.3387 23.3263 24.2212 23.3651 24.1237 23.4394ZM22.5618 21.5351L23.5968 22.8982L22.9606 23.3813L21.9256 22.0188C22.0375 21.9464 22.1467 21.8698 22.2531 21.7894C22.36 21.7076 22.4618 21.6219 22.5618 21.5351ZM21.5987 15.2482C21.0443 14.5176 20.2381 14.0463 19.3287 13.9219C18.4194 13.7982 17.5168 14.0351 16.7862 14.5901C16.0556 15.1451 15.5843 15.9513 15.46 16.8601C15.3356 17.7688 15.5731 18.6719 16.1281 19.4026C17.2731 20.9107 19.4325 21.2063 20.9406 20.0607C22.4493 18.9157 22.7443 16.7563 21.5987 15.2482ZM22.7294 14.3894C21.1106 12.2576 18.0594 11.8401 15.9275 13.4588C14.8943 14.2432 14.2293 15.3826 14.0537 16.6676C13.8775 17.9526 14.2131 19.2282 14.9975 20.2613C15.7812 21.2938 16.9206 21.9594 18.2056 22.1351C19.4906 22.3107 20.7669 21.9757 21.7994 21.1913C22.8325 20.4069 23.4975 19.2676 23.6731 17.9832C23.8493 16.6982 23.5137 15.4219 22.7294 14.3894ZM19.4306 13.1788C20.5381 13.3301 21.52 13.9038 22.1962 14.7938C23.5919 16.6319 23.2319 19.2619 21.3944 20.6576C20.6394 21.2307 19.7506 21.5082 18.8681 21.5082C17.6037 21.5082 16.3531 20.9388 15.5306 19.8557C14.8543 18.9657 14.5656 17.8657 14.7169 16.7576C14.8687 15.6501 15.4425 14.6676 16.3325 13.9919C17.2225 13.3169 18.3231 13.0276 19.4306 13.1788ZM5.01873 8.12632C7.16498 8.12632 8.9106 9.87257 8.9106 12.0188C8.9106 14.1651 7.16498 15.9113 5.01873 15.9113C2.87248 15.9113 1.12623 14.1651 1.12623 12.0188C1.12623 9.87257 2.87248 8.12632 5.01873 8.12632ZM10.5525 9.90319C10.5525 9.69569 10.72 9.52819 10.9275 9.52819H18.2994C18.5069 9.52819 18.6744 9.69632 18.6744 9.90319C18.6744 10.1101 18.5069 10.2782 18.2994 10.2782H10.9275C10.72 10.2782 10.5525 10.1101 10.5525 9.90319ZM10.9275 11.6438H14.8562C15.0631 11.6438 15.2312 11.8113 15.2312 12.0188C15.2312 12.2257 15.0631 12.3938 14.8562 12.3938H10.9275C10.72 12.3938 10.5525 12.2257 10.5525 12.0188C10.5525 11.8113 10.72 11.6438 10.9275 11.6438ZM13.0281 13.7594C13.235 13.7594 13.4031 13.9276 13.4031 14.1344C13.4031 14.3419 13.235 14.5094 13.0281 14.5094H10.9587C10.7512 14.5094 10.5837 14.3413 10.5837 14.1344C10.5837 13.9276 10.7512 13.7594 10.9587 13.7594H13.0281ZM13.3106 16.5663C13.1075 18.0494 13.4943 19.5232 14.4 20.7151C15.5012 22.1651 17.1762 22.9282 18.87 22.9276C19.4562 22.9276 20.045 22.8357 20.6131 22.6501V27.9501C20.6131 28.4326 20.2206 28.8251 19.7381 28.8251H1.2556C0.773726 28.8251 0.381226 28.4326 0.381226 27.9501V5.21444C0.381226 4.73194 0.773726 4.33944 1.2556 4.33944H3.5581V6.12444C3.5581 6.33194 3.72623 6.49944 3.9331 6.49944H17.0612C17.2681 6.49944 17.4362 6.33132 17.4362 6.12444V4.33944H19.7381C20.2206 4.33944 20.6131 4.73194 20.6131 5.21444V12.0044C18.9219 11.4513 16.995 11.7069 15.4737 12.8626C14.2812 13.7676 13.5131 15.0832 13.3106 16.5663ZM2.6631 23.8476C2.45623 23.8476 2.2881 24.0157 2.2881 24.2226C2.2881 24.4301 2.45623 24.5976 2.6631 24.5976H18.3306C18.5381 24.5976 18.7056 24.4294 18.7056 24.2226C18.7056 24.0157 18.5381 23.8476 18.3306 23.8476H2.6631ZM18.3306 26.4713H2.6631C2.45623 26.4713 2.2881 26.6394 2.2881 26.8463C2.2881 27.0532 2.45623 27.2213 2.6631 27.2213H18.3306C18.5381 27.2213 18.7056 27.0532 18.7056 26.8463C18.7056 26.6394 18.5381 26.4713 18.3306 26.4713ZM2.6631 18.5994C2.45623 18.5994 2.2881 18.7676 2.2881 18.9744C2.2881 19.1819 2.45623 19.3494 2.6631 19.3494H12.42C12.6269 19.3494 12.795 19.1813 12.795 18.9744C12.795 18.7676 12.6269 18.5994 12.42 18.5994H2.6631ZM2.6631 21.2232H13.7681C13.975 21.2232 14.1431 21.3913 14.1431 21.5982C14.1431 21.8051 13.975 21.9732 13.7681 21.9732H2.6631C2.45623 21.9732 2.2881 21.8051 2.2881 21.5982C2.2881 21.3913 2.45623 21.2232 2.6631 21.2232ZM8.1606 12.0188C8.1606 10.2863 6.75123 8.87632 5.01873 8.87632C3.2856 8.87632 1.87623 10.2857 1.87623 12.0188C1.87623 13.7513 3.2856 15.1613 5.01873 15.1613C6.75123 15.1607 8.1606 13.7513 8.1606 12.0188ZM5.31498 11.7401C5.2681 11.7194 5.2206 11.6982 5.1731 11.6769C5.1231 11.6544 5.0731 11.6326 5.02435 11.6107C4.57123 11.4113 4.40998 11.3126 4.40998 11.1563C4.40998 10.8876 4.6831 10.6688 5.01873 10.6688C5.35373 10.6688 5.62685 10.8876 5.62685 11.1563C5.62685 11.3638 5.79435 11.5313 6.00185 11.5313C6.20873 11.5313 6.37685 11.3638 6.37685 11.1563C6.37685 10.5926 5.9606 10.1163 5.39373 9.96757V9.41445C5.39373 9.20757 5.2256 9.03945 5.01873 9.03945C4.81123 9.03945 4.64373 9.20757 4.64373 9.41445V9.96757C4.07623 10.1163 3.65998 10.5926 3.65998 11.1563C3.65998 11.8301 4.24873 12.0888 4.72185 12.2976C4.76873 12.3182 4.81623 12.3394 4.86435 12.3607C4.91373 12.3832 4.96373 12.4051 5.0131 12.4269C5.4656 12.6263 5.62685 12.7251 5.62685 12.8813C5.62685 13.1501 5.35373 13.3682 5.01873 13.3682C4.6831 13.3682 4.40998 13.1494 4.40998 12.8813C4.40998 12.6738 4.24248 12.5063 4.03498 12.5063C3.8281 12.5063 3.65998 12.6738 3.65998 12.8813C3.65998 13.4451 4.07623 13.9213 4.64373 14.0701V14.6226C4.64373 14.8301 4.81123 14.9976 5.01873 14.9976C5.2256 14.9976 5.39373 14.8294 5.39373 14.6226V14.0701C5.9606 13.9213 6.37685 13.4451 6.37685 12.8813C6.37685 12.2076 5.7881 11.9482 5.31498 11.7401ZM16.6862 2.48569H4.3081V5.74944H16.6862V2.48569Z" fill="#000031"/>
</g>
</svg>
