<svg width="28" height="29" viewBox="0 0 28 29" fill="none" xmlns="http://www.w3.org/2000/svg">
<g id="Group">
<path id="Vector" fill-rule="evenodd" clip-rule="evenodd" d="M10.4969 0.210571C9.5781 0.210571 8.80935 0.866821 8.63498 1.73495H12.3594C12.185 0.866821 11.4162 0.210571 10.4969 0.210571ZM24.1237 23.4393L23.3412 24.0337C23.2824 24.0782 23.2331 24.1339 23.1961 24.1976C23.159 24.2614 23.1351 24.3318 23.1256 24.405C23.105 24.5543 23.1431 24.7018 23.2337 24.8206L26.115 28.6149C26.205 28.7331 26.3369 28.81 26.4862 28.8306C26.6356 28.8512 26.7831 28.8124 26.9018 28.7224L27.6844 28.1281C27.743 28.0834 27.7922 28.0277 27.8292 27.9639C27.8662 27.9002 27.8902 27.8299 27.9 27.7568C27.92 27.6074 27.8819 27.4599 27.7919 27.3412L24.91 23.5468C24.82 23.4281 24.6881 23.3518 24.5387 23.3312C24.5125 23.3274 24.4862 23.3256 24.4606 23.3256C24.3387 23.3262 24.2212 23.3649 24.1237 23.4393ZM22.5618 21.5349L23.5968 22.8981L22.9606 23.3812L21.9256 22.0187C22.0375 21.9462 22.1467 21.8697 22.2531 21.7893C22.36 21.7074 22.4618 21.6218 22.5618 21.5349ZM21.5987 15.2481C21.0443 14.5174 20.2381 14.0462 19.3287 13.9218C18.4194 13.7981 17.5168 14.0349 16.7862 14.5899C16.0556 15.1449 15.5843 15.9512 15.46 16.8599C15.3356 17.7687 15.5731 18.6718 16.1281 19.4024C17.2731 20.9106 19.4325 21.2062 20.9406 20.0606C22.4493 18.9156 22.7443 16.7562 21.5987 15.2481ZM22.7294 14.3893C21.1106 12.2574 18.0594 11.8399 15.9275 13.4587C14.8943 14.2431 14.2293 15.3824 14.0537 16.6674C13.8775 17.9524 14.2131 19.2281 14.9975 20.2612C15.7812 21.2937 16.9206 21.9593 18.2056 22.1349C19.4906 22.3106 20.7669 21.9756 21.7994 21.1912C22.8325 20.4068 23.4975 19.2674 23.6731 17.9831C23.8493 16.6981 23.5137 15.4218 22.7294 14.3893ZM19.4306 13.1787C20.5381 13.3299 21.52 13.9037 22.1962 14.7937C23.5919 16.6318 23.2319 19.2618 21.3944 20.6574C20.6394 21.2306 19.7506 21.5081 18.8681 21.5081C17.6037 21.5081 16.3531 20.9387 15.5306 19.8556C14.8543 18.9656 14.5656 17.8656 14.7169 16.7574C14.8687 15.6499 15.4425 14.6674 16.3325 13.9918C17.2225 13.3168 18.3231 13.0274 19.4306 13.1787ZM5.01873 8.1262C7.16498 8.1262 8.9106 9.87245 8.9106 12.0187C8.9106 14.1649 7.16498 15.9112 5.01873 15.9112C2.87248 15.9112 1.12623 14.1649 1.12623 12.0187C1.12623 9.87245 2.87248 8.1262 5.01873 8.1262ZM10.5525 9.90307C10.5525 9.69557 10.72 9.52807 10.9275 9.52807H18.2994C18.5069 9.52807 18.6744 9.6962 18.6744 9.90307C18.6744 10.1099 18.5069 10.2781 18.2994 10.2781H10.9275C10.72 10.2781 10.5525 10.1099 10.5525 9.90307ZM10.9275 11.6437H14.8562C15.0631 11.6437 15.2312 11.8112 15.2312 12.0187C15.2312 12.2256 15.0631 12.3937 14.8562 12.3937H10.9275C10.72 12.3937 10.5525 12.2256 10.5525 12.0187C10.5525 11.8112 10.72 11.6437 10.9275 11.6437ZM13.0281 13.7593C13.235 13.7593 13.4031 13.9274 13.4031 14.1343C13.4031 14.3418 13.235 14.5093 13.0281 14.5093H10.9587C10.7512 14.5093 10.5837 14.3412 10.5837 14.1343C10.5837 13.9274 10.7512 13.7593 10.9587 13.7593H13.0281ZM13.3106 16.5662C13.1075 18.0493 13.4943 19.5231 14.4 20.7149C15.5012 22.1649 17.1762 22.9281 18.87 22.9274C19.4562 22.9274 20.045 22.8356 20.6131 22.6499V27.95C20.6131 28.4325 20.2206 28.825 19.7381 28.825H1.2556C0.773726 28.825 0.381226 28.4325 0.381226 27.95V5.21432C0.381226 4.73182 0.773726 4.33932 1.2556 4.33932H3.5581V6.12432C3.5581 6.33182 3.72623 6.49932 3.9331 6.49932H17.0612C17.2681 6.49932 17.4362 6.3312 17.4362 6.12432V4.33932H19.7381C20.2206 4.33932 20.6131 4.73182 20.6131 5.21432V12.0043C18.9219 11.4512 16.995 11.7068 15.4737 12.8624C14.2812 13.7674 13.5131 15.0831 13.3106 16.5662ZM2.6631 23.8474C2.45623 23.8474 2.2881 24.0156 2.2881 24.2224C2.2881 24.4299 2.45623 24.5974 2.6631 24.5974H18.3306C18.5381 24.5974 18.7056 24.4293 18.7056 24.2224C18.7056 24.0156 18.5381 23.8474 18.3306 23.8474H2.6631ZM18.3306 26.4712H2.6631C2.45623 26.4712 2.2881 26.6393 2.2881 26.8462C2.2881 27.0531 2.45623 27.2212 2.6631 27.2212H18.3306C18.5381 27.2212 18.7056 27.0531 18.7056 26.8462C18.7056 26.6393 18.5381 26.4712 18.3306 26.4712ZM2.6631 18.5993C2.45623 18.5993 2.2881 18.7674 2.2881 18.9743C2.2881 19.1818 2.45623 19.3493 2.6631 19.3493H12.42C12.6269 19.3493 12.795 19.1812 12.795 18.9743C12.795 18.7674 12.6269 18.5993 12.42 18.5993H2.6631ZM2.6631 21.2231H13.7681C13.975 21.2231 14.1431 21.3912 14.1431 21.5981C14.1431 21.8049 13.975 21.9731 13.7681 21.9731H2.6631C2.45623 21.9731 2.2881 21.8049 2.2881 21.5981C2.2881 21.3912 2.45623 21.2231 2.6631 21.2231ZM8.1606 12.0187C8.1606 10.2862 6.75123 8.8762 5.01873 8.8762C3.2856 8.8762 1.87623 10.2856 1.87623 12.0187C1.87623 13.7512 3.2856 15.1612 5.01873 15.1612C6.75123 15.1606 8.1606 13.7512 8.1606 12.0187ZM5.31498 11.7399C5.2681 11.7193 5.2206 11.6981 5.1731 11.6768C5.1231 11.6543 5.0731 11.6324 5.02435 11.6106C4.57123 11.4112 4.40998 11.3124 4.40998 11.1562C4.40998 10.8874 4.6831 10.6687 5.01873 10.6687C5.35373 10.6687 5.62685 10.8874 5.62685 11.1562C5.62685 11.3637 5.79435 11.5312 6.00185 11.5312C6.20873 11.5312 6.37685 11.3637 6.37685 11.1562C6.37685 10.5924 5.9606 10.1162 5.39373 9.96745V9.41432C5.39373 9.20745 5.2256 9.03932 5.01873 9.03932C4.81123 9.03932 4.64373 9.20745 4.64373 9.41432V9.96745C4.07623 10.1162 3.65998 10.5924 3.65998 11.1562C3.65998 11.8299 4.24873 12.0887 4.72185 12.2974C4.76873 12.3181 4.81623 12.3393 4.86435 12.3606C4.91373 12.3831 4.96373 12.4049 5.0131 12.4268C5.4656 12.6262 5.62685 12.7249 5.62685 12.8812C5.62685 13.1499 5.35373 13.3681 5.01873 13.3681C4.6831 13.3681 4.40998 13.1493 4.40998 12.8812C4.40998 12.6737 4.24248 12.5062 4.03498 12.5062C3.8281 12.5062 3.65998 12.6737 3.65998 12.8812C3.65998 13.4449 4.07623 13.9212 4.64373 14.0699V14.6224C4.64373 14.8299 4.81123 14.9974 5.01873 14.9974C5.2256 14.9974 5.39373 14.8293 5.39373 14.6224V14.0699C5.9606 13.9212 6.37685 13.4449 6.37685 12.8812C6.37685 12.2074 5.7881 11.9481 5.31498 11.7399ZM16.6862 2.48557H4.3081V5.74932H16.6862V2.48557Z" fill="white"/>
</g>
</svg>
