<svg width="24" height="31" viewBox="0 0 24 31" fill="none" xmlns="http://www.w3.org/2000/svg">
<g id="Group">
<path id="Vector" fill-rule="evenodd" clip-rule="evenodd" d="M13.5795 23.5601C14.0634 23.6191 14.4595 23.4781 14.5944 22.9746C14.715 22.5246 14.43 22.1037 14.0069 21.9545C12.5861 21.6937 11.2112 21.1966 10.1296 20.8056C8.58723 20.248 8.19098 20.1152 6.66892 20.9964L3.99167 22.5465L6.24673 26.531L6.35148 26.4706C6.4655 26.4049 6.60095 26.3871 6.72805 26.4213L12.9347 28.0828C13.6925 28.2859 14.4145 28.1958 15.0849 27.7831L23.6414 22.5144C23.8965 22.3574 24.0215 21.9901 23.9842 21.6301C23.954 21.3381 23.8112 21.0709 23.5429 20.935C23.108 20.7148 22.3485 20.783 21.1683 21.4703L16.4533 24.2165C16.0712 24.439 15.678 24.5805 15.2696 24.6491C14.0947 24.8465 12.3327 24.2955 11.279 23.9946C10.9424 23.8985 10.6007 23.8009 10.268 23.7118C10.2039 23.6955 10.1437 23.6667 10.0908 23.627C10.0379 23.5873 9.99346 23.5375 9.95998 23.4805C9.9265 23.4234 9.90468 23.3603 9.89579 23.2948C9.8869 23.2293 9.89111 23.1626 9.90819 23.0988C9.92526 23.0349 9.95485 22.975 9.99524 22.9226C10.0356 22.8703 10.086 22.8265 10.1435 22.7937C10.2009 22.761 10.2643 22.74 10.33 22.732C10.3956 22.724 10.4622 22.729 10.5259 22.747C11.542 23.0191 12.5497 23.3466 13.5795 23.5601ZM5.90655 4.0657C5.97704 4.06557 6.0446 4.03751 6.09445 3.98767C6.14429 3.93782 6.17235 3.87026 6.17248 3.79977V0.813703C6.11438 0.840615 6.0616 0.877771 6.01667 0.923391L3.03011 3.90995C2.98449 3.95488 2.94733 4.00766 2.92042 4.06577L5.90655 4.0657ZM23.2309 23.9371V26.6196C23.2309 26.9126 22.992 27.1516 22.699 27.1516H18.0106L23.2309 23.9371ZM22.699 0.767578H7.17248V3.79977C7.17248 4.4982 6.60498 5.0657 5.90655 5.0657H2.87436V20.9182C3.08416 21.0609 3.25821 21.2501 3.38298 21.471L3.50023 21.6782L4.90673 20.8639V19.2864C4.90673 19.011 5.13136 18.7864 5.40673 18.7864H6.88623C7.16161 18.7864 7.38623 19.011 7.38623 19.2864V19.558C8.11461 19.312 8.77192 19.2863 9.5108 19.5305V16.2165C9.5108 15.9411 9.73542 15.7165 10.0108 15.7165H11.4904C11.7657 15.7165 11.9904 15.9411 11.9904 16.2165V20.398C12.6669 20.6177 13.3904 20.8238 14.1149 20.9614V17.25C14.1149 16.9746 14.3395 16.75 14.6149 16.75H16.0945C16.3699 16.75 16.5945 16.9746 16.5945 17.25V22.9798L18.719 21.7424V12.964C18.719 12.6886 18.9436 12.464 19.219 12.464H20.6985C20.9739 12.464 21.1985 12.6886 21.1985 12.964V20.3236C22.0132 19.9287 22.688 19.7965 23.2309 19.839V1.29952C23.2309 1.00652 22.992 0.767578 22.699 0.767578ZM10.9479 3.30439H17.6845C17.8172 3.30439 17.9443 3.35707 18.0381 3.45084C18.1319 3.54461 18.1845 3.67178 18.1845 3.80439C18.1845 3.937 18.1319 4.06418 18.0381 4.15794C17.9443 4.25171 17.8172 4.30439 17.6845 4.30439H10.9479C10.8152 4.30439 10.6881 4.25171 10.5943 4.15794C10.5005 4.06418 10.4479 3.937 10.4479 3.80439C10.4479 3.67178 10.5005 3.54461 10.5943 3.45084C10.6881 3.35707 10.8152 3.30439 10.9479 3.30439ZM10.9479 5.55814H17.6845C17.8172 5.55814 17.9443 5.61082 18.0381 5.70459C18.1319 5.79836 18.1845 5.92553 18.1845 6.05814C18.1845 6.19075 18.1319 6.31793 18.0381 6.41169C17.9443 6.50546 17.8172 6.55814 17.6845 6.55814H10.9479C10.8152 6.55814 10.6881 6.50546 10.5943 6.41169C10.5005 6.31793 10.4479 6.19075 10.4479 6.05814C10.4479 5.92553 10.5005 5.79836 10.5943 5.70459C10.6881 5.61082 10.8152 5.55814 10.9479 5.55814ZM10.9479 7.81208H17.6845C17.8172 7.81208 17.9443 7.86476 18.0381 7.95852C18.1319 8.05229 18.1845 8.17947 18.1845 8.31208C18.1845 8.44469 18.1319 8.57186 18.0381 8.66563C17.9443 8.7594 17.8172 8.81208 17.6845 8.81208H10.9479C10.8152 8.81208 10.6881 8.7594 10.5943 8.66563C10.5005 8.57186 10.4479 8.44469 10.4479 8.31208C10.4479 8.17947 10.5005 8.05229 10.5943 7.95852C10.6881 7.86476 10.8152 7.81208 10.9479 7.81208ZM8.2818 3.30439H9.00198C9.13459 3.30439 9.26177 3.35707 9.35554 3.45084C9.4493 3.54461 9.50198 3.67178 9.50198 3.80439C9.50198 3.937 9.4493 4.06418 9.35554 4.15794C9.26177 4.25171 9.13459 4.30439 9.00198 4.30439H8.2818C8.14919 4.30439 8.02201 4.25171 7.92824 4.15794C7.83447 4.06418 7.7818 3.937 7.7818 3.80439C7.7818 3.67178 7.83447 3.54461 7.92824 3.45084C8.02201 3.35707 8.14919 3.30439 8.2818 3.30439ZM8.2818 5.55814H9.00198C9.13459 5.55814 9.26177 5.61082 9.35554 5.70459C9.4493 5.79836 9.50198 5.92553 9.50198 6.05814C9.50198 6.19075 9.4493 6.31793 9.35554 6.41169C9.26177 6.50546 9.13459 6.55814 9.00198 6.55814H8.2818C8.14919 6.55814 8.02201 6.50546 7.92824 6.41169C7.83447 6.31793 7.7818 6.19075 7.7818 6.05814C7.7818 5.92553 7.83447 5.79836 7.92824 5.70459C8.02201 5.61082 8.14919 5.55814 8.2818 5.55814ZM8.2818 7.81208H9.00198C9.13459 7.81208 9.26177 7.86476 9.35554 7.95852C9.4493 8.05229 9.50198 8.17947 9.50198 8.31208C9.50198 8.44469 9.4493 8.57186 9.35554 8.66563C9.26177 8.7594 9.13459 8.81208 9.00198 8.81208H8.2818C8.14919 8.81208 8.02201 8.7594 7.92824 8.66563C7.83447 8.57186 7.7818 8.44469 7.7818 8.31208C7.7818 8.17947 7.83447 8.05229 7.92824 7.95852C8.02201 7.86476 8.14919 7.81208 8.2818 7.81208ZM20.4515 9.56645L20.2877 11.0313C20.2805 11.0964 20.2606 11.1595 20.229 11.2169C20.1975 11.2744 20.1549 11.325 20.1038 11.366C20.0526 11.407 19.9939 11.4375 19.931 11.4558C19.868 11.4741 19.8021 11.4798 19.737 11.4726C19.6054 11.4581 19.485 11.3919 19.4022 11.2886C19.3612 11.2375 19.3307 11.1788 19.3124 11.1158C19.2941 11.0529 19.2884 10.987 19.2956 10.9218L19.3036 10.8503L15.7084 14.4763C15.6436 14.5414 15.562 14.5874 15.4728 14.6091C15.3835 14.6308 15.29 14.6274 15.2025 14.5993L10.848 13.188L6.45323 16.6101C6.34888 16.6885 6.21791 16.7229 6.08849 16.7057C5.95908 16.6886 5.84155 16.6214 5.76119 16.5185C5.68083 16.4156 5.64405 16.2853 5.65878 16.1556C5.6735 16.0259 5.73855 15.9071 5.83992 15.8249L10.444 12.2399C10.508 12.1898 10.5833 12.1562 10.6633 12.142C10.7433 12.1277 10.8256 12.1333 10.9029 12.1581L15.2167 13.556L18.6449 10.0984L18.503 10.1108C18.3721 10.1201 18.2428 10.0775 18.143 9.99223C18.0432 9.90696 17.9809 9.78586 17.9697 9.65508C17.9584 9.5243 17.999 9.39434 18.0827 9.29324C18.1665 9.19215 18.2866 9.12804 18.4172 9.11477L19.9159 8.98333C20.242 8.9552 20.5064 9.24783 20.4515 9.56645ZM6.22792 28.5281L2.51267 21.9636C2.33305 21.6462 1.92636 21.5335 1.60898 21.7131L0.345295 22.4283C0.0278573 22.608 -0.0848304 23.0146 0.0947946 23.3321L3.81004 29.8966C3.98973 30.2141 4.39636 30.3268 4.71373 30.1471L5.97742 29.432C6.29486 29.2522 6.40755 28.8455 6.22792 28.5281ZM1.79136 23.8405C1.67368 23.8562 1.55455 23.8249 1.45978 23.7534C1.365 23.6819 1.30222 23.5759 1.28505 23.4585C1.26787 23.341 1.29768 23.2215 1.36801 23.1258C1.43835 23.0302 1.54354 22.9661 1.66079 22.9475C1.7792 22.9302 1.89962 22.9606 1.99558 23.0321C2.09154 23.1036 2.15518 23.2103 2.17248 23.3287C2.18979 23.4471 2.15936 23.5675 2.08789 23.6635C2.01641 23.7595 1.90975 23.8231 1.79136 23.8405Z" fill="#000031"/>
</g>
</svg>
