<svg width="24" height="31" viewBox="0 0 24 31" fill="none" xmlns="http://www.w3.org/2000/svg">
<g id="Group">
<path id="Vector" fill-rule="evenodd" clip-rule="evenodd" d="M13.5795 23.56C14.0634 23.619 14.4595 23.478 14.5944 22.9745C14.715 22.5245 14.43 22.1036 14.0069 21.9544C12.5861 21.6936 11.2112 21.1965 10.1296 20.8055C8.58723 20.2479 8.19098 20.1151 6.66892 20.9963L3.99167 22.5463L6.24673 26.5309L6.35148 26.4705C6.4655 26.4048 6.60095 26.387 6.72805 26.4211L12.9347 28.0826C13.6925 28.2858 14.4145 28.1957 15.0849 27.783L23.6414 22.5143C23.8965 22.3573 24.0215 21.99 23.9842 21.63C23.954 21.338 23.8112 21.0708 23.5429 20.9349C23.108 20.7146 22.3485 20.7829 21.1683 21.4702L16.4533 24.2164C16.0712 24.4389 15.678 24.5803 15.2696 24.649C14.0947 24.8463 12.3327 24.2954 11.279 23.9945C10.9424 23.8984 10.6007 23.8008 10.268 23.7116C10.2039 23.6954 10.1437 23.6666 10.0908 23.6269C10.0379 23.5872 9.99346 23.5374 9.95998 23.4804C9.9265 23.4233 9.90468 23.3602 9.89579 23.2947C9.8869 23.2292 9.89111 23.1625 9.90819 23.0986C9.92526 23.0347 9.95485 22.9749 9.99524 22.9225C10.0356 22.8702 10.086 22.8263 10.1435 22.7936C10.2009 22.7609 10.2643 22.7399 10.33 22.7319C10.3956 22.7238 10.4622 22.7289 10.5259 22.7468C11.542 23.019 12.5497 23.3465 13.5795 23.56ZM5.90655 4.06558C5.97704 4.06545 6.0446 4.03739 6.09445 3.98754C6.14429 3.9377 6.17235 3.87013 6.17248 3.79964V0.813581C6.11438 0.840493 6.0616 0.877649 6.01667 0.923269L3.03011 3.90983C2.98449 3.95476 2.94733 4.00754 2.92042 4.06564L5.90655 4.06558ZM23.2309 23.937V26.6195C23.2309 26.9125 22.992 27.1515 22.699 27.1515H18.0106L23.2309 23.937ZM22.699 0.767456H7.17248V3.79964C7.17248 4.49808 6.60498 5.06558 5.90655 5.06558H2.87436V20.9181C3.08416 21.0608 3.25821 21.25 3.38298 21.4709L3.50023 21.6781L4.90673 20.8638V19.2863C4.90673 19.0109 5.13136 18.7863 5.40673 18.7863H6.88623C7.16161 18.7863 7.38623 19.0109 7.38623 19.2863V19.5579C8.11461 19.3118 8.77192 19.2862 9.5108 19.5304V16.2164C9.5108 15.941 9.73542 15.7164 10.0108 15.7164H11.4904C11.7657 15.7164 11.9904 15.941 11.9904 16.2164V20.3978C12.6669 20.6176 13.3904 20.8236 14.1149 20.9613V17.2499C14.1149 16.9745 14.3395 16.7499 14.6149 16.7499H16.0945C16.3699 16.7499 16.5945 16.9745 16.5945 17.2499V22.9797L18.719 21.7423V12.9638C18.719 12.6885 18.9436 12.4638 19.219 12.4638H20.6985C20.9739 12.4638 21.1985 12.6885 21.1985 12.9638V20.3235C22.0132 19.9286 22.688 19.7964 23.2309 19.8388V1.29939C23.2309 1.00639 22.992 0.767456 22.699 0.767456ZM10.9479 3.30427H17.6845C17.8172 3.30427 17.9443 3.35695 18.0381 3.45071C18.1319 3.54448 18.1845 3.67166 18.1845 3.80427C18.1845 3.93688 18.1319 4.06405 18.0381 4.15782C17.9443 4.25159 17.8172 4.30427 17.6845 4.30427H10.9479C10.8152 4.30427 10.6881 4.25159 10.5943 4.15782C10.5005 4.06405 10.4479 3.93688 10.4479 3.80427C10.4479 3.67166 10.5005 3.54448 10.5943 3.45071C10.6881 3.35695 10.8152 3.30427 10.9479 3.30427ZM10.9479 5.55802H17.6845C17.8172 5.55802 17.9443 5.6107 18.0381 5.70447C18.1319 5.79823 18.1845 5.92541 18.1845 6.05802C18.1845 6.19063 18.1319 6.3178 18.0381 6.41157C17.9443 6.50534 17.8172 6.55802 17.6845 6.55802H10.9479C10.8152 6.55802 10.6881 6.50534 10.5943 6.41157C10.5005 6.3178 10.4479 6.19063 10.4479 6.05802C10.4479 5.92541 10.5005 5.79823 10.5943 5.70447C10.6881 5.6107 10.8152 5.55802 10.9479 5.55802ZM10.9479 7.81196H17.6845C17.8172 7.81196 17.9443 7.86463 18.0381 7.9584C18.1319 8.05217 18.1845 8.17935 18.1845 8.31196C18.1845 8.44456 18.1319 8.57174 18.0381 8.66551C17.9443 8.75928 17.8172 8.81196 17.6845 8.81196H10.9479C10.8152 8.81196 10.6881 8.75928 10.5943 8.66551C10.5005 8.57174 10.4479 8.44456 10.4479 8.31196C10.4479 8.17935 10.5005 8.05217 10.5943 7.9584C10.6881 7.86463 10.8152 7.81196 10.9479 7.81196ZM8.2818 3.30427H9.00198C9.13459 3.30427 9.26177 3.35695 9.35554 3.45071C9.4493 3.54448 9.50198 3.67166 9.50198 3.80427C9.50198 3.93688 9.4493 4.06405 9.35554 4.15782C9.26177 4.25159 9.13459 4.30427 9.00198 4.30427H8.2818C8.14919 4.30427 8.02201 4.25159 7.92824 4.15782C7.83447 4.06405 7.7818 3.93688 7.7818 3.80427C7.7818 3.67166 7.83447 3.54448 7.92824 3.45071C8.02201 3.35695 8.14919 3.30427 8.2818 3.30427ZM8.2818 5.55802H9.00198C9.13459 5.55802 9.26177 5.6107 9.35554 5.70447C9.4493 5.79823 9.50198 5.92541 9.50198 6.05802C9.50198 6.19063 9.4493 6.3178 9.35554 6.41157C9.26177 6.50534 9.13459 6.55802 9.00198 6.55802H8.2818C8.14919 6.55802 8.02201 6.50534 7.92824 6.41157C7.83447 6.3178 7.7818 6.19063 7.7818 6.05802C7.7818 5.92541 7.83447 5.79823 7.92824 5.70447C8.02201 5.6107 8.14919 5.55802 8.2818 5.55802ZM8.2818 7.81196H9.00198C9.13459 7.81196 9.26177 7.86463 9.35554 7.9584C9.4493 8.05217 9.50198 8.17935 9.50198 8.31196C9.50198 8.44456 9.4493 8.57174 9.35554 8.66551C9.26177 8.75928 9.13459 8.81196 9.00198 8.81196H8.2818C8.14919 8.81196 8.02201 8.75928 7.92824 8.66551C7.83447 8.57174 7.7818 8.44456 7.7818 8.31196C7.7818 8.17935 7.83447 8.05217 7.92824 7.9584C8.02201 7.86463 8.14919 7.81196 8.2818 7.81196ZM20.4515 9.56633L20.2877 11.0311C20.2805 11.0963 20.2606 11.1594 20.229 11.2168C20.1975 11.2742 20.1549 11.3249 20.1038 11.3659C20.0526 11.4069 19.9939 11.4374 19.931 11.4557C19.868 11.474 19.8021 11.4797 19.737 11.4725C19.6054 11.458 19.485 11.3918 19.4022 11.2885C19.3612 11.2374 19.3307 11.1786 19.3124 11.1157C19.2941 11.0528 19.2884 10.9868 19.2956 10.9217L19.3036 10.8501L15.7084 14.4761C15.6436 14.5413 15.562 14.5872 15.4728 14.609C15.3835 14.6307 15.29 14.6273 15.2025 14.5992L10.848 13.1879L6.45323 16.61C6.34888 16.6884 6.21791 16.7227 6.08849 16.7056C5.95908 16.6885 5.84155 16.6213 5.76119 16.5184C5.68083 16.4155 5.64405 16.2852 5.65878 16.1555C5.6735 16.0258 5.73855 15.907 5.83992 15.8248L10.444 12.2398C10.508 12.1897 10.5833 12.1561 10.6633 12.1418C10.7433 12.1276 10.8256 12.1331 10.9029 12.158L15.2167 13.5558L18.6449 10.0983L18.503 10.1107C18.3721 10.12 18.2428 10.0774 18.143 9.9921C18.0432 9.90684 17.9809 9.78574 17.9697 9.65496C17.9584 9.52418 17.999 9.39421 18.0827 9.29312C18.1665 9.19203 18.2866 9.12792 18.4172 9.11464L19.9159 8.98321C20.242 8.95508 20.5064 9.24771 20.4515 9.56633ZM6.22792 28.528L2.51267 21.9635C2.33305 21.6461 1.92636 21.5334 1.60898 21.713L0.345295 22.4282C0.0278573 22.6078 -0.0848304 23.0145 0.0947946 23.332L3.81004 29.8965C3.98973 30.214 4.39636 30.3266 4.71373 30.147L5.97742 29.4318C6.29486 29.2521 6.40755 28.8454 6.22792 28.528ZM1.79136 23.8403C1.67368 23.8561 1.55455 23.8248 1.45978 23.7533C1.365 23.6818 1.30222 23.5758 1.28505 23.4583C1.26787 23.3409 1.29768 23.2214 1.36801 23.1257C1.43835 23.0301 1.54354 22.966 1.66079 22.9474C1.7792 22.9301 1.89962 22.9605 1.99558 23.032C2.09154 23.1035 2.15518 23.2102 2.17248 23.3286C2.18979 23.447 2.15936 23.5674 2.08789 23.6634C2.01641 23.7593 1.90975 23.823 1.79136 23.8403Z" fill="white"/>
</g>
</svg>
